0
SECTION
2
HEADER
9
$INSUNITS
70
4
9
$ACADVER
1
AC1014
9
$HANDSEED
5
FFFF
0
ENDSEC
0
SECTION
2
TABLES
0
TABLE
2
VPORT
5
8
100
AcDbSymbolTable
0
ENDTAB
0
TABLE
2
LTYPE
5
5
100
AcDbSymbolTable
0
LTYPE
5
14
100
AcDbSymbolTableRecord
100
AcDbLinetypeTableRecord
2
BYBLOCK
70
0
0
LTYPE
5
15
100
AcDbSymbolTableRecord
100
AcDbLinetypeTableRecord
2
BYLAYER
70
0
0
ENDTAB
0
TABLE
2
LAYER
5
2
100
AcDbSymbolTable
70
2
0
LAYER
5
50
100
AcDbSymbolTableRecord
100
AcDbLayerTableRecord
2
0
70
0
6
CONTINUOUS
0
ENDTAB
0
TABLE
2
STYLE
5
3
100
AcDbSymbolTable
70
1
0
STYLE
5
11
100
AcDbSymbolTableRecord
100
AcDbTextStyleTableRecord
2
STANDARD
70
0
0
ENDTAB
0
TABLE
2
VIEW
5
6
100
AcDbSymbolTable
70
0
0
ENDTAB
0
TABLE
2
UCS
5
7
100
AcDbSymbolTable
70
0
0
ENDTAB
0
TABLE
2
APPID
5
9
100
AcDbSymbolTable
70
2
0
APPID
5
12
100
AcDbSymbolTableRecord
100
AcDbRegAppTableRecord
2
ACAD
70
0
0
ENDTAB
0
TABLE
2
DIMSTYLE
5
A
100
AcDbSymbolTable
70
1
0
ENDTAB
0
TABLE
2
BLOCK_RECORD
5
1
100
AcDbSymbolTable
70
1
0
BLOCK_RECORD
5
1F
100
AcDbSymbolTableRecord
100
AcDbBlockTableRecord
2
*MODEL_SPACE
0
BLOCK_RECORD
5
1B
100
AcDbSymbolTableRecord
100
AcDbBlockTableRecord
2
*PAPER_SPACE
0
ENDTAB
0
ENDSEC
0
SECTION
2
BLOCKS
0
BLOCK
5
20
100
AcDbEntity
100
AcDbBlockBegin
2
*MODEL_SPACE
0
ENDBLK
5
21
100
AcDbEntity
100
AcDbBlockEnd
0
BLOCK
5
1C
100
AcDbEntity
100
AcDbBlockBegin
2
*PAPER_SPACE
0
ENDBLK
5
1D
100
AcDbEntity
100
AcDbBlockEnd
0
ENDSEC
0
SECTION
2
ENTITIES
0
LINE
5
100
100
AcDbEntity
8
0
100
AcDbLine
10
-6.9589421910977531
20
116.93986067557324
30
0
11
-27.406974796518103
21
110.64833604309081
31
0
0
ARC
5
101
100
AcDbEntity
8
0
100
AcDbCircle
10
-27.28934349219233
20
110.26602350570469
30
0
40
0.39999999999999547
210
0
220
0
230
1
100
AcDbArc
50
107.10227409280745
51
152.10227409280498
0
ARC
5
102
100
AcDbEntity
8
0
100
AcDbCircle
10
-25.714561196858128
20
109.92245112163044
30
0
40
1.9999999999999829
210
-4.0885973455209496e-34
220
-1.4855051847442135e-33
230
1
100
AcDbArc
50
164.61134943614763
51
217.02898412310233
0
ARC
5
103
100
AcDbEntity
8
0
100
AcDbCircle
10
-29.865882234012624
20
106.79091257860107
30
6.2008141274138939e-48
40
3.2000000000000126
210
6.1501180724772654e-34
220
4.6393260400177735e-34
230
1
100
AcDbArc
50
-92.245517223825615
51
37.028984123102603
0
ARC
5
104
100
AcDbEntity
8
0
100
AcDbCircle
10
-30.069626745137093
20
101.59490563343761
30
0
40
2.0000000000000062
210
-1.2679510645226971e-34
220
-7.7590540881604698e-34
230
1
100
AcDbArc
50
87.754482776174243
51
152.10227409280955
0
LINE
5
105
100
AcDbEntity
8
0
100
AcDbLine
10
-31.837195148571826
20
102.53069510718649
30
-1.5076094341950786e-33
11
-34.497416118245802
21
97.505929746968405
31
0
0
ARC
5
106
100
AcDbEntity
8
0
100
AcDbCircle
10
-32.729847714811072
20
96.570140273219494
30
0
40
2.0000000000000107
210
-7.2090598765415152e-34
220
-1.3616851667710642e-33
230
1
100
AcDbArc
50
152.10227409280878
51
199.16422103676646
0
SPLINE
5
107
100
AcDbEntity
8
0
100
AcDbSpline
70
0
71
3
72
10
73
6
74
0
42
0.000000001
43
0.0000000001
44
0.0000000001
40
-11.463523312604512
40
-11.463523312604512
40
-11.463523312604512
40
-11.463523312604512
40
-6.0859745175555968
40
-6.0859745175555968
40
-1.4989823800408926
40
-1.4989823800408926
40
-1.4989823800408926
40
-1.4989823800408926
10
-34.619010815599012
20
95.913586559787532
30
0
10
-29.306143269003357
20
80.626378334438215
30
0
10
-23.641239188402025
20
65.455047348905865
30
0
10
-12.451510111457564
20
37.613949393636553
30
0
10
-8.8827968872356493
20
29.287857345631455
30
0
10
-3.8923102709468758
20
18.034544428515474
30
0
0
SPLINE
5
108
100
AcDbEntity
8
0
100
AcDbSpline
70
0
71
3
72
12
73
8
74
0
42
0.000000001
43
0.0000000001
44
0.0000000001
40
0
40
0
40
0
40
0
40
0.15625778935477097
40
0.15625778935477097
40
0.28767181581326406
40
0.28767181581326406
40
0.41908584227175716
40
0.41908584227175716
40
0.41908584227175716
40
0.41908584227175716
10
-0.66834541516825419
20
15.679579104884398
30
0
10
-1.1861495882633502
20
15.73591068112103
30
0
10
-1.6880004617715707
20
15.892842366043903
30
0
10
-2.5305375045321279
20
16.350698401825735
30
0
10
-2.8784660495498002
20
16.62166696600606
30
0
10
-3.4725691495611066
20
17.265546880536885
30
0
10
-3.7147291294234712
20
17.634107295347157
30
0
10
-3.8923102709468766
20
18.034544428515474
30
0
0
LINE
5
109
100
AcDbEntity
8
0
100
AcDbLine
10
-0.66834541516825419
20
15.679579104884398
30
0
11
21.962147249807149
21
13.217622656736062
31
0
0
ARC
5
110
100
AcDbEntity
8
0
100
AcDbCircle
10
21.940517002840558
20
13.018795766159945
30
0
40
0.20000000000000007
210
-1.666333613498279e-34
220
-1.5317066492397319e-33
230
1
100
AcDbArc
50
-6.2087533036049116
51
83.791246696396286
0
LINE
5
111
100
AcDbEntity
8
0
100
AcDbLine
10
22.139343893416665
20
12.99716551919335
30
7.3501029527535361e-50
11
21.9663019176839
21
11.406550394584476
31
0
0
ARC
5
112
100
AcDbEntity
8
0
100
AcDbCircle
10
22.165128808260008
20
11.384920147617883
30
-4.91788706656964e-48
40
0.19999999999999984
210
1.6663336134983639e-34
220
1.5317066492397434e-33
230
1
100
AcDbArc
50
173.79124669639552
51
263.79124669639322
0
LINE
5
113
100
AcDbEntity
8
0
100
AcDbLine
10
22.143498561293406
20
11.186093257041769
30
3.0814879110196006e-34
11
24.728248138782803
21
10.904900046476037
31
0
0
ARC
5
114
100
AcDbEntity
8
0
100
AcDbCircle
10
24.749878385749405
20
11.103726937052148
30
2.8064029455968054e-48
40
0.20000000000000298
210
4.3376570388448775e-47
220
-1.8833714417666664e-47
230
1
100
AcDbArc
50
263.7912466963931
51
353.79124669639413
0
LINE
5
115
100
AcDbEntity
8
0
100
AcDbLine
10
24.948705276325516
20
11.08209669008555
30
1.8319234054874302e-49
11
25.121747252058277
21
12.672711814694429
31
0
0
ARC
5
116
100
AcDbEntity
8
0
100
AcDbCircle
10
25.320574142634385
20
12.651081567727832
30
0
40
0.19999999999999984
210
-1.9146333115496675e-34
220
2.0829170168725951e-35
230
1
100
AcDbArc
50
83.791246696395106
51
173.79124669639452
0
LINE
5
117
100
AcDbEntity
8
0
100
AcDbLine
10
25.34220438960098
20
12.849908458303943
30
7.549852840368783e-50
11
38.448861001072167
21
11.424043885403243
31
0
0
ARC
5
118
100
AcDbEntity
8
0
100
AcDbCircle
10
37.908104826907341
20
6.4533716210006942
30
0
40
4.9999999999998144
210
0
220
-0
230
1
100
AcDbArc
50
64.170424793347962
51
83.791246696395305
0
ARC
5
119
100
AcDbEntity
8
0
100
AcDbCircle
10
41.284747061251217
20
13.429100057604458
30
0
40
2.7500000000000044
210
-6.9340718864356482e-34
220
3.3564781370867751e-34
230
1
100
AcDbArc
50
244.17042479334805
51
282.29709807048692
0
LINE
5
120
100
AcDbEntity
8
0
100
AcDbLine
10
41.870444537290716
20
10.742195059923858
30
1.3079806283705866e-33
11
46.809214546997154
21
11.818759036663508
31
0
0
ARC
5
121
100
AcDbEntity
8
0
100
AcDbCircle
10
47.235176347753189
20
9.864646311077621
30
0
40
2.0000000000000067
210
0
220
-0
230
1
100
AcDbArc
50
43.035184698206223
51
102.29709807048793
0
LINE
5
122
100
AcDbEntity
8
0
100
AcDbLine
10
48.697045860096971
20
11.229541006239035
30
0
11
50.18940275236335
21
9.7413449375136967
31
0
0
ARC
5
123
100
AcDbEntity
8
0
100
AcDbCircle
10
57.250592540539522
20
16.82227699306662
30
0
40
10.00000000000002
210
0
220
0
230
1
100
AcDbArc
50
225.07998431044621
51
263.79124669639504
0
LINE
5
124
100
AcDbEntity
8
0
100
AcDbLine
10
56.169080192209776
20
6.8809324642611394
30
0
11
74.187988064700932
21
4.9206672998209591
31
0
0
ARC
5
125
100
AcDbEntity
8
0
100
AcDbCircle
10
74.29613929953392
20
5.9148017527014982
30
0
40
0.99999999999999378
210
-1.9146333115496632e-34
220
2.0829170168729853e-35
230
1
100
AcDbArc
50
263.79124669639418
51
353.79124669639521
0
LINE
5
126
100
AcDbEntity
8
0
100
AcDbLine
10
75.29027375241445
20
5.8066505178685297
30
1.9259299443872252e-34
11
75.614727456913371
21
8.7890538765101667
31
0
0
ARC
5
127
100
AcDbEntity
8
0
100
AcDbCircle
10
74.620593004032841
20
8.8972051113431476
30
0
40
0.99999999999999201
210
1.6663336134983575e-34
220
1.5317066492397311e-33
230
1
100
AcDbArc
50
-6.2087533036054712
51
83.791246696395831
0
LINE
5
128
100
AcDbEntity
8
0
100
AcDbLine
10
74.728744238865801
20
9.8913395642236868
30
-1.5407439555097765e-33
11
62.194572563995727
21
11.254923876504394
31
0
0
ARC
5
129
100
AcDbEntity
8
0
100
AcDbCircle
10
62.519026268494635
20
14.237327235146005
30
0
40
2.9999999999999689
210
0
220
0
230
1
100
AcDbArc
50
217.19248184238864
51
263.79124669639521
0
LINE
5
130
100
AcDbEntity
8
0
100
AcDbLine
10
60.129198534666585
20
12.423843460025283
30
0
11
56.114548718251783
21
17.714390640265144
31
0
0
ARC
5
131
100
AcDbEntity
8
0
100
AcDbCircle
10
52.131502495204998
20
14.691917681730546
30
0
40
5.0000000000000133
210
2.3265674095044089e-49
220
-3.0659746704841219e-49
230
1
100
AcDbArc
50
37.192481842388986
51
83.791246696394822
0
LINE
5
132
100
AcDbEntity
8
0
100
AcDbLine
10
52.672258669369889
20
19.662589946133288
30
2.6466251541463744e-33
11
45.528892469508776
21
20.4397120679354
31
0
0
ARC
5
133
100
AcDbEntity
8
0
100
AcDbCircle
10
45.312589999842828
20
18.451443162174311
30
0
40
1.9999999999999978
210
-1.9146333115496656e-34
220
2.0829170168728041e-35
230
1
100
AcDbArc
50
83.791246696395049
51
109.69775469590903
0
LINE
5
134
100
AcDbEntity
8
0
100
AcDbLine
10
44.638473272113892
20
20.334410670496222
30
-1.682892849312915e-34
11
39.816546492056588
21
18.608124110608792
31
0
0
ARC
5
135
100
AcDbEntity
8
0
100
AcDbCircle
10
38.468313036598687
20
22.374059127252622
30
-2.5658541216885078e-47
40
4.0000000000000142
210
-5.1932063677820322e-34
220
1.450585403434164e-33
230
1
100
AcDbArc
50
232.06764373871107
51
289.69775469590934
0
LINE
5
136
100
AcDbEntity
8
0
100
AcDbLine
10
36.009390171452203
20
19.219110895781952
30
3.2995524650454035e-33
11
33.093110589700011
21
21.492018727739513
31
0
0
ARC
5
137
100
AcDbEntity
8
0
100
AcDbCircle
10
31.863649157126773
20
19.914544612004189
30
0
40
1.999999999999996
210
-6.0762092719808759e-34
220
4.7357131769240399e-34
230
1
100
AcDbArc
50
52.067643738711013
51
83.791246696395035
0
LINE
5
138
100
AcDbEntity
8
0
100
AcDbLine
10
32.07995162679272
20
21.902813517765274
30
-3.4312541016894756e-33
11
21.813745231298451
21
23.019667375415764
31
0
0
ARC
5
139
100
AcDbEntity
8
0
100
AcDbCircle
10
22.181459429730563
20
26.399724515209609
30
0
40
3.3999999999999932
210
0
220
0
230
1
100
AcDbArc
50
199.79124669639475
51
263.79124669639504
0
LINE
5
140
100
AcDbEntity
8
0
100
AcDbLine
10
18.982288901475542
20
25.248504322916038
30
0
11
16.39720980085745
21
32.432281090615732
31
0
0
ARC
5
141
100
AcDbEntity
8
0
100
AcDbCircle
10
18.279074817478048
20
33.109469439023719
30
0
40
1.9999999999999969
210
0
220
0
230
1
100
AcDbArc
50
137.79124669639464
51
199.79124669639489
0
LINE
5
142
100
AcDbEntity
8
0
100
AcDbLine
10
16.797670885034137
20
34.453136953306817
30
0
11
22.51783574199095
21
40.759663399207007
31
0
0
ARC
5
143
100
AcDbEntity
8
0
100
AcDbCircle
10
21.036431809547036
20
42.103330913490083
30
0
40
1.9999999999999911
210
-0
220
0
230
1
100
AcDbArc
50
-42.208753303604858
51
22.759457101921747
0
LINE
5
144
100
AcDbEntity
8
0
100
AcDbLine
10
22.880706068623748
20
42.877057258722708
30
0
11
19.404086012491241
21
51.164019332099322
31
3.0814879110195774e-32
0
SPLINE
5
145
100
AcDbEntity
8
0
100
AcDbSpline
70
0
71
3
72
16
73
12
74
0
42
0.000000001
43
0.0000000001
44
0.0000000001
40
-1
40
-1
40
-1
40
-1
40
-0.75090412215434332
40
-0.50180824430868665
40
-0.37726030538585831
40
-0.31498633592444414
40
-0.28384935119373705
40
-0.25271236646302997
40
-0.1904383970016158
40
-0.12816442754020166
40
-0.0036164886173733219
40
-0.0036164886173733219
40
-0.0036164886173733219
40
-0.0036164886173733219
10
19.404086012491241
20
51.164019332099322
30
0
10
17.585822088408335
20
55.498080556789482
30
0
10
13.835476697225777
20
64.117844480769421
30
0
10
8.8514698396163105
20
74.759931063230141
30
0
10
5.2008653378330916
20
82.128119596341662
30
0
10
3.3320779976542898
20
85.792041794529084
30
0
10
2.2502081175846707
20
87.874693803376573
30
0
10
1.1475674104937568
20
89.950523842892721
30
0
10
-0.23863692269372125
20
92.540586849999983
30
0
10
-2.4856629358038744
20
96.668704915283143
30
0
10
-4.2016258459605202
20
99.747782635012385
30
0
10
-5.3605715627662329
20
101.79224894342161
30
0
0
ARC
5
146
100
AcDbEntity
8
0
100
AcDbCircle
10
-7.1004644955117469
20
100.80595660208428
30
0
40
1.9999999999996267
210
2.7415724583116243e-48
220
-4.8363374071811703e-48
230
1
100
AcDbArc
50
29.547580855946052
51
30.676133839885637
0
SPLINE
5
147
100
AcDbEntity
8
0
100
AcDbSpline
70
0
71
3
72
20
73
16
74
0
42
0.000000001
43
0.0000000001
44
0.0000000001
40
-1.0185027736514587
40
-1.0185027736514587
40
-1.0185027736514587
40
-1.0185027736514587
40
-0.89320213885479161
40
-0.83055182138569839
40
-0.76790150391660528
40
-0.64260086897841906
40
-0.51730023404023273
40
-0.45464991657113957
40
-0.3919995991020464
40
-0.32934928163295329
40
-0.26669896416386013
40
-0.20404864669476697
40
-0.14139832922567383
40
-0.078748011756580694
40
-0.016097700195493558
40
-0.016097700195493558
40
-0.016097700195493558
40
-0.016097700195493558
10
-5.3803347752889863
20
101.82632601832842
30
0
10
-5.572690049756492
20
102.15059682740923
30
0
10
-5.8311676965317236
20
102.65902854902053
30
0
10
-6.0862633370442776
20
103.37662782940902
30
0
10
-6.2767919810828854
20
104.10632927391602
30
0
10
-6.3920362247551736
20
105.06087171033379
30
0
10
-6.3147496355573596
20
106.01843958501613
30
0
10
-6.1248918298232056
20
106.76854810671415
30
0
10
-5.9184354736189349
20
107.30637068900069
30
0
10
-5.6412055487011878
20
107.82403998181097
30
0
10
-5.3033197221721027
20
108.2960346726874
30
0
10
-4.9074909238391644
20
108.72061531097046
30
0
10
-4.4582395898196792
20
109.09476092259338
30
0
10
-3.978893821212266
20
109.40788120528106
30
0
10
-3.6342869869860452
20
109.57886460781904
30
0
10
-3.4678558221743669
20
109.65651548800631
30
0
0
ARC
5
148
100
AcDbEntity
8
0
100
AcDbCircle
10
-2.6222368932153017
20
107.84407828164984
30
3.8410836201676962e-45
40
1.999999999999817
210
-6.5144112672966235e-34
220
1.3962508352185019e-33
230
1
100
AcDbArc
50
107.10254058922081
51
115.01208822115662
0
LINE
5
149
100
AcDbEntity
8
0
100
AcDbLine
10
-3.2104023059743274
20
109.75563823290256
30
-3.0521723176941541e-33
11
14.147698637162858
21
115.09652989535991
31
0
0
ARC
5
150
100
AcDbEntity
8
0
100
AcDbCircle
10
13.559533224403776
20
117.0080898466128
30
0
40
2.0000000000000204
210
1.7984207925848654e-48
220
5.5335377113958316e-49
230
1
100
AcDbArc
50
287.10254058922084
51
346.4991143075676
0
ARC
5
151
100
AcDbEntity
8
0
100
AcDbCircle
10
18.61583804485327
20
115.79409579279761
30
-1.8399312264274675e-46
40
3.1999999999999429
210
3.597026923924746e-34
220
1.4981675171774029e-33
230
1
100
AcDbArc
50
126.26528647061501
51
166.49911430756779
0
ARC
5
152
100
AcDbEntity
8
0
100
AcDbCircle
10
15.53990915699856
20
119.9867872287204
30
0
40
2.0000000000000027
210
9.4187749399994958e-34
220
-1.2838403769263361e-33
230
1
100
AcDbArc
50
-53.734713529384905
51
17.102540589220482
0
LINE
5
153
100
AcDbEntity
8
0
100
AcDbLine
10
17.451469108251448
20
120.57495264147947
30
-1.0115062248659653e-33
11
17.205888297696951
21
121.37309961181906
31
0
0
ARC
5
154
100
AcDbEntity
8
0
100
AcDbCircle
10
15.294328346444059
20
120.78493419905998
30
0
40
2.0000000000000022
210
0
220
-0
230
1
100
AcDbArc
50
17.10254058922083
51
85.626455589302182
0
ARC
5
155
100
AcDbEntity
8
0
100
AcDbCircle
10
13.354525087454114
20
95.421846235708557
30
0
40
27.437159191236155
210
-1.9203217711345456e-34
220
1.4686880538121583e-35
230
1
100
AcDbArc
50
85.62645558930187
51
107.102274092808
0
LINE
5
156
100
AcDbEntity
8
0
100
AcDbLine
10
5.2858530308061997
20
121.64577110837975
30
-4.1273262418589823e-32
11
-5.434424642593731
21
118.34731729862946
31
0
0
ARC
5
157
100
AcDbEntity
8
0
100
AcDbCircle
10
-4.8462681209648375
20
116.43575461169885
30
0
40
2.0000000000000018
210
-6.5397213321691758e-49
220
-2.0121651136259614e-49
230
1
100
AcDbArc
50
107.1022740928079
51
158.32501403683995
0
ARC
5
158
100
AcDbEntity
8
0
100
AcDbCircle
10
-7.0765734954235571
20
117.3221732129594
30
-9.1408553085153091e-48
40
0.40000000000003821
210
-1.4963053791629682e-33
220
-4.603886511910682e-34
230
1
100
AcDbArc
50
287.10227409280986
51
338.3250140368379
0
CIRCLE
5
159
100
AcDbEntity
8
0
100
AcDbCircle
10
-26.90679840756891
20
101.07592541364197
30
0
40
1.25
210
9.2730153767185535e-69
220
-1.5407439555097887e-33
230
1
0
CIRCLE
5
160
100
AcDbEntity
8
0
100
AcDbCircle
10
41.284747061251217
20
13.429100057604458
30
0
40
1.25
210
9.2730153767185535e-69
220
-1.5407439555097887e-33
230
1
0
CIRCLE
5
161
100
AcDbEntity
8
0
100
AcDbCircle
10
-1.3940334741021432
20
114.75438790110771
30
0
40
1.2500000000000018
210
0
220
-0
230
1
0
CIRCLE
5
162
100
AcDbEntity
8
0
100
AcDbCircle
10
-13.341769121846168
20
113.67832335575088
30
0
40
0.24999999999998801
210
0
220
-0
230
1
0
CIRCLE
5
163
100
AcDbEntity
8
0
100
AcDbCircle
10
-22.89958255649924
20
110.7375407476064
30
0
40
0.24999999999999911
210
0
220
-0
230
1
0
CIRCLE
5
164
100
AcDbEntity
8
0
100
AcDbCircle
10
46.846903036832984
20
17.853497532375158
30
0
40
0.25000000000000355
210
0
220
-0
230
1
0
CIRCLE
5
165
100
AcDbEntity
8
0
100
AcDbCircle
10
5.3142184015481782
20
23.220413612035866
30
0
40
3.2000000000000006
210
0
220
-0
230
1
0
CIRCLE
5
166
100
AcDbEntity
8
0
100
AcDbCircle
10
-1.873524692911444
20
24.896185283505794
30
0
40
0.2500000000000005
210
0
220
-0
230
1
0
CIRCLE
5
167
100
AcDbEntity
8
0
100
AcDbCircle
10
25.248955278692105
20
20.242317173286853
30
0
40
1.25
210
9.2730153767185535e-69
220
-1.5407439555097887e-33
230
1
0
CIRCLE
5
168
100
AcDbEntity
8
0
100
AcDbCircle
10
0.12647530708855606
20
20.632082727354309
30
0
40
1.25
210
9.2730153767185535e-69
220
-1.5407439555097887e-33
230
1
0
ENDSEC
0
SECTION
2
OBJECTS
0
DICTIONARY
5
C
100
AcDbDictionary
3
ACAD_GROUP
350
D
3
ACAD_MLINESTYLE
350
17
0
DICTIONARY
5
D
100
AcDbDictionary
0
DICTIONARY
5
1A
330
C
100
AcDbDictionary
0
DICTIONARY
5
17
100
AcDbDictionary
0
ENDSEC
0
EOF
