0
SECTION
2
HEADER
9
$INSUNITS
70
4
9
$ACADVER
1
AC1014
9
$HANDSEED
5
FFFF
0
ENDSEC
0
SECTION
2
TABLES
0
TABLE
2
VPORT
5
8
100
AcDbSymbolTable
0
ENDTAB
0
TABLE
2
LTYPE
5
5
100
AcDbSymbolTable
0
LTYPE
5
14
100
AcDbSymbolTableRecord
100
AcDbLinetypeTableRecord
2
BYBLOCK
70
0
0
LTYPE
5
15
100
AcDbSymbolTableRecord
100
AcDbLinetypeTableRecord
2
BYLAYER
70
0
0
ENDTAB
0
TABLE
2
LAYER
5
2
100
AcDbSymbolTable
70
2
0
LAYER
5
50
100
AcDbSymbolTableRecord
100
AcDbLayerTableRecord
2
0
70
0
6
CONTINUOUS
0
ENDTAB
0
TABLE
2
STYLE
5
3
100
AcDbSymbolTable
70
1
0
STYLE
5
11
100
AcDbSymbolTableRecord
100
AcDbTextStyleTableRecord
2
STANDARD
70
0
0
ENDTAB
0
TABLE
2
VIEW
5
6
100
AcDbSymbolTable
70
0
0
ENDTAB
0
TABLE
2
UCS
5
7
100
AcDbSymbolTable
70
0
0
ENDTAB
0
TABLE
2
APPID
5
9
100
AcDbSymbolTable
70
2
0
APPID
5
12
100
AcDbSymbolTableRecord
100
AcDbRegAppTableRecord
2
ACAD
70
0
0
ENDTAB
0
TABLE
2
DIMSTYLE
5
A
100
AcDbSymbolTable
70
1
0
ENDTAB
0
TABLE
2
BLOCK_RECORD
5
1
100
AcDbSymbolTable
70
1
0
BLOCK_RECORD
5
1F
100
AcDbSymbolTableRecord
100
AcDbBlockTableRecord
2
*MODEL_SPACE
0
BLOCK_RECORD
5
1B
100
AcDbSymbolTableRecord
100
AcDbBlockTableRecord
2
*PAPER_SPACE
0
ENDTAB
0
ENDSEC
0
SECTION
2
BLOCKS
0
BLOCK
5
20
100
AcDbEntity
100
AcDbBlockBegin
2
*MODEL_SPACE
0
ENDBLK
5
21
100
AcDbEntity
100
AcDbBlockEnd
0
BLOCK
5
1C
100
AcDbEntity
100
AcDbBlockBegin
2
*PAPER_SPACE
0
ENDBLK
5
1D
100
AcDbEntity
100
AcDbBlockEnd
0
ENDSEC
0
SECTION
2
ENTITIES
0
LINE
5
100
100
AcDbEntity
8
0
100
AcDbLine
10
-7.0854174981863096
20
115.04367539206747
30
0
11
-27.533450103606661
21
108.75215075958505
31
0
0
ARC
5
101
100
AcDbEntity
8
0
100
AcDbCircle
10
-27.415818799280885
20
108.36983822219892
30
0
40
0.39999999999999547
210
0
220
0
230
1
100
AcDbArc
50
107.10227409280735
51
152.10227409280523
0
ARC
5
102
100
AcDbEntity
8
0
100
AcDbCircle
10
-25.841036503946686
20
108.02626583812467
30
0
40
1.9999999999999829
210
0
220
0
230
1
100
AcDbArc
50
164.61134943614763
51
217.02898412310208
0
ARC
5
103
100
AcDbEntity
8
0
100
AcDbCircle
10
-29.992357541101153
20
104.89472729509528
30
0
40
3.1999999999999962
210
0
220
0
230
1
100
AcDbArc
50
-92.245517223826042
51
37.028984123103271
0
ARC
5
104
100
AcDbEntity
8
0
100
AcDbCircle
10
-30.196102052225655
20
99.698720349931847
30
0
40
2.0000000000000062
210
0
220
-0
230
1
100
AcDbArc
50
87.75448277617393
51
152.10227409280949
0
LINE
5
105
100
AcDbEntity
8
0
100
AcDbLine
10
-31.963670455660385
20
100.63450982368073
30
0
11
-34.623891425334357
21
95.609744463462633
31
0
0
ARC
5
106
100
AcDbEntity
8
0
100
AcDbCircle
10
-32.856323021899634
20
94.673954989713721
30
0
40
2.0000000000000067
210
0
220
0
230
1
100
AcDbArc
50
152.10227409280867
51
199.16422103676646
0
SPLINE
5
107
100
AcDbEntity
8
0
100
AcDbSpline
70
0
71
3
72
10
73
6
74
0
42
0.000000001
43
0.0000000001
44
0.0000000001
40
-11.463523312604512
40
-11.463523312604512
40
-11.463523312604512
40
-11.463523312604512
40
-6.0859745175555968
40
-6.0859745175555968
40
-1.4989823800408926
40
-1.4989823800408926
40
-1.4989823800408926
40
-1.4989823800408926
10
-34.745486122687566
20
94.01740127628176
30
0
10
-29.432618576091908
20
78.730193050932442
30
0
10
-23.76771449549058
20
63.558862065400078
30
0
10
-12.57798541854612
20
35.717764110130766
30
0
10
-9.009272194324204
20
27.391672062125657
30
0
10
-4.0187855780354322
20
16.138359145009677
30
0
0
SPLINE
5
108
100
AcDbEntity
8
0
100
AcDbSpline
70
0
71
3
72
12
73
8
74
0
42
0.000000001
43
0.0000000001
44
0.0000000001
40
0
40
0
40
0
40
0
40
0.15625778935477097
40
0.15625778935477097
40
0.28767181581326406
40
0.28767181581326406
40
0.41908584227175716
40
0.41908584227175716
40
0.41908584227175716
40
0.41908584227175716
10
-0.79482072225681022
20
13.783393821378597
30
0
10
-1.3126248953519062
20
13.839725397615229
30
0
10
-1.8144757688601267
20
13.996657082538102
30
0
10
-2.6570128116206835
20
14.454513118319936
30
0
10
-3.0049413566383567
20
14.725481682500259
30
0
10
-3.5990444566496627
20
15.369361597031086
30
0
10
-3.8412044365120273
20
15.737922011841356
30
0
10
-4.0187855780354322
20
16.138359145009677
30
0
0
LINE
5
109
100
AcDbEntity
8
0
100
AcDbLine
10
-0.79482072225681022
20
13.783393821378597
30
0
11
21.835671942718594
21
11.32143737323026
31
0
0
ARC
5
110
100
AcDbEntity
8
0
100
AcDbCircle
10
21.814041695751996
20
11.122610482654146
30
0
40
0.20000000000000007
210
-0
220
0
230
1
100
AcDbArc
50
-6.2087533036053184
51
83.791246696394211
0
LINE
5
111
100
AcDbEntity
8
0
100
AcDbLine
10
22.012868586328107
20
11.100980235687549
30
0
11
21.839826610595342
21
9.5103651110786753
31
0
0
ARC
5
112
100
AcDbEntity
8
0
100
AcDbCircle
10
22.038653501171449
20
9.4887348641120841
30
0
40
0.19999999999999968
210
0
220
0
230
1
100
AcDbArc
50
173.79124669639606
51
263.79124669639316
0
LINE
5
113
100
AcDbEntity
8
0
100
AcDbLine
10
22.017023254204847
20
9.2899079735359713
30
0
11
24.601772831694252
21
9.008714762970234
31
0
0
ARC
5
114
100
AcDbEntity
8
0
100
AcDbCircle
10
24.62340307866085
20
9.2075416535463486
30
0
40
0.20000000000000473
210
0
220
0
230
1
100
AcDbArc
50
263.79124669639418
51
353.79124669639413
0
LINE
5
115
100
AcDbEntity
8
0
100
AcDbLine
10
24.822229969236961
20
9.1859114065797502
30
0
11
24.995271944969719
21
10.776526531188628
31
0
0
ARC
5
116
100
AcDbEntity
8
0
100
AcDbCircle
10
25.19409883554583
20
10.754896284222033
30
0
40
0.19999999999999984
210
0
220
-0
230
1
100
AcDbArc
50
83.791246696396072
51
173.79124669639512
0
LINE
5
117
100
AcDbEntity
8
0
100
AcDbLine
10
25.215729082512421
20
10.953723174798142
30
0
11
38.322385693983605
21
9.5278586018974387
31
0
0
ARC
5
118
100
AcDbEntity
8
0
100
AcDbCircle
10
37.781629519818765
20
4.5571863374948274
30
0
40
4.9999999999998828
210
0
220
-0
230
1
100
AcDbArc
50
64.170424793347991
51
83.791246696395234
0
ARC
5
119
100
AcDbEntity
8
0
100
AcDbCircle
10
41.158271754162655
20
11.532914774098657
30
0
40
2.7500000000000031
210
0
220
0
230
1
100
AcDbArc
50
244.1704247933483
51
282.29709807048692
0
LINE
5
120
100
AcDbEntity
8
0
100
AcDbLine
10
41.743969230202154
20
8.8460097764180574
30
0
11
46.682739239908599
21
9.9225737531577174
31
0
0
ARC
5
121
100
AcDbEntity
8
0
100
AcDbCircle
10
47.108701040664627
20
7.9684610275718075
30
0
40
2.0000000000000147
210
0
220
-0
230
1
100
AcDbArc
50
43.035184698206301
51
102.29709807048759
0
LINE
5
122
100
AcDbEntity
8
0
100
AcDbLine
10
48.570570553008416
20
9.3333557227332324
30
0
11
50.062927445274788
21
7.8451596540078938
31
0
0
ARC
5
123
100
AcDbEntity
8
0
100
AcDbCircle
10
57.12411723345096
20
14.92609170956082
30
0
40
10.000000000000021
210
0
220
0
230
1
100
AcDbArc
50
225.07998431044626
51
263.79124669639504
0
LINE
5
124
100
AcDbEntity
8
0
100
AcDbLine
10
56.042604885121214
20
4.9847471807553365
30
0
11
74.061512757612377
21
3.0244820163151509
31
0
0
ARC
5
125
100
AcDbEntity
8
0
100
AcDbCircle
10
74.169663992445351
20
4.0186164691956945
30
0
40
0.99999999999999822
210
0
220
0
230
1
100
AcDbArc
50
263.79124669639504
51
353.79124669639526
0
LINE
5
126
100
AcDbEntity
8
0
100
AcDbLine
10
75.163798445325895
20
3.9104652343627255
30
0
11
75.488252149824802
21
6.8928685930043621
31
0
0
ARC
5
127
100
AcDbEntity
8
0
100
AcDbCircle
10
74.494117696944272
20
7.0010198278373448
30
0
40
0.99999999999998324
210
-0
220
0
230
1
100
AcDbArc
50
-6.2087533036055218
51
83.791246696395021
0
LINE
5
128
100
AcDbEntity
8
0
100
AcDbLine
10
74.602268931777246
20
7.9951542807178839
30
0
11
62.068097256907173
21
9.3587385929985878
31
0
0
ARC
5
129
100
AcDbEntity
8
0
100
AcDbCircle
10
62.392550961406101
20
12.341141951640246
30
0
40
3.0000000000000164
210
0
220
0
230
1
100
AcDbArc
50
217.19248184238901
51
263.79124669639492
0
LINE
5
130
100
AcDbEntity
8
0
100
AcDbLine
10
60.002723227578024
20
10.527658176519481
30
0
11
55.988073411163228
21
15.818205356759343
31
0
0
ARC
5
131
100
AcDbEntity
8
0
100
AcDbCircle
10
52.005027188116443
20
12.795732398224747
30
0
40
5.0000000000000133
210
0
220
-0
230
1
100
AcDbArc
50
37.192481842388958
51
83.791246696394907
0
LINE
5
132
100
AcDbEntity
8
0
100
AcDbLine
10
52.545783362281327
20
17.76640466262749
30
0
11
45.402417162420221
21
18.543526784429609
31
0
0
ARC
5
133
100
AcDbEntity
8
0
100
AcDbCircle
10
45.186114692754273
20
16.55525787866851
30
0
40
2.0000000000000067
210
0
220
-0
230
1
100
AcDbArc
50
83.791246696395078
51
109.69775469590923
0
LINE
5
134
100
AcDbEntity
8
0
100
AcDbLine
10
44.51199796502533
20
18.438225386990421
30
0
11
39.690071184968019
21
16.711938827103001
31
0
0
ARC
5
135
100
AcDbEntity
8
0
100
AcDbCircle
10
38.341837729510139
20
20.477873843746842
30
0
40
4.0000000000000284
210
0
220
0
230
1
100
AcDbArc
50
232.06764373871107
51
289.69775469590905
0
LINE
5
136
100
AcDbEntity
8
0
100
AcDbLine
10
35.882914864363642
20
17.322925612276158
30
0
11
32.966635282611456
21
19.595833444233719
31
0
0
ARC
5
137
100
AcDbEntity
8
0
100
AcDbCircle
10
31.737173850038218
20
18.018359328498391
30
0
40
2.0000000000000004
210
0
220
-0
230
1
100
AcDbArc
50
52.067643738711077
51
83.791246696395248
0
LINE
5
138
100
AcDbEntity
8
0
100
AcDbLine
10
31.953476319704158
20
20.006628234259484
30
0
11
21.687269924209893
21
21.12348209190996
31
0
0
ARC
5
139
100
AcDbEntity
8
0
100
AcDbCircle
10
22.054984122642018
20
24.503539231703833
30
0
40
3.4000000000000141
210
0
220
0
230
1
100
AcDbArc
50
199.79124669639509
51
263.79124669639481
0
LINE
5
140
100
AcDbEntity
8
0
100
AcDbLine
10
18.855813594386987
20
23.352319039410236
30
0
11
16.270734493768895
21
30.536095807109938
31
0
0
ARC
5
141
100
AcDbEntity
8
0
100
AcDbCircle
10
18.152599510389496
20
31.213284155517925
30
0
40
2.0000000000000018
210
0
220
0
230
1
100
AcDbArc
50
137.79124669639478
51
199.79124669639486
0
LINE
5
142
100
AcDbEntity
8
0
100
AcDbLine
10
16.671195577945578
20
32.556951669801023
30
0
11
22.391360434902392
21
38.863478115701213
31
0
0
ARC
5
143
100
AcDbEntity
8
0
100
AcDbCircle
10
20.909956502458478
20
40.207145629984296
30
0
40
1.9999999999999971
210
-0
220
0
230
1
100
AcDbArc
50
-42.208753303605015
51
22.759457101921747
0
LINE
5
144
100
AcDbEntity
8
0
100
AcDbLine
10
22.75423076153519
20
40.980871975216921
30
0
11
19.277610705402683
21
49.267834048593535
31
0
0
SPLINE
5
145
100
AcDbEntity
8
0
100
AcDbSpline
70
0
71
3
72
16
73
12
74
0
42
0.000000001
43
0.0000000001
44
0.0000000001
40
-1
40
-1
40
-1
40
-1
40
-0.75090412215434332
40
-0.50180824430868665
40
-0.37726030538585831
40
-0.31498633592444414
40
-0.28384935119373705
40
-0.25271236646302997
40
-0.1904383970016158
40
-0.12816442754020166
40
-0.0036164886173733219
40
-0.0036164886173733219
40
-0.0036164886173733219
40
-0.0036164886173733219
10
19.277610705402687
20
49.267834048593535
30
0
10
17.459346781319777
20
53.601895273283695
30
0
10
13.709001390137221
20
62.221659197263641
30
0
10
8.724994532527754
20
72.863745779724368
30
0
10
5.0743900307445351
20
80.23193431283589
30
0
10
3.2056026905657338
20
83.895856511023311
30
0
10
2.1237328104961146
20
85.978508519870815
30
0
10
1.0210921034052007
20
88.054338559386949
30
0
10
-0.36511222978227731
20
90.644401566494224
30
0
10
-2.6121382428924305
20
94.772519631777371
30
0
10
-4.3281011530490758
20
97.851597351506626
30
0
10
-5.4870468698547894
20
99.896063659915839
30
0
0
ARC
5
146
100
AcDbEntity
8
0
100
AcDbCircle
10
-7.2269398026003024
20
98.909771318578507
30
0
40
1.9999999999996181
210
0
220
-0
230
1
100
AcDbArc
50
29.547580855945707
51
30.676133839885637
0
SPLINE
5
147
100
AcDbEntity
8
0
100
AcDbSpline
70
0
71
3
72
20
73
16
74
0
42
0.000000001
43
0.0000000001
44
0.0000000001
40
-1.0185027736514587
40
-1.0185027736514587
40
-1.0185027736514587
40
-1.0185027736514587
40
-0.89320213885479161
40
-0.83055182138569839
40
-0.76790150391660528
40
-0.64260086897841906
40
-0.51730023404023273
40
-0.45464991657113957
40
-0.3919995991020464
40
-0.32934928163295329
40
-0.26669896416386013
40
-0.20404864669476697
40
-0.14139832922567383
40
-0.078748011756580694
40
-0.016097700195493558
40
-0.016097700195493558
40
-0.016097700195493558
40
-0.016097700195493558
10
-5.5068100823775428
20
99.930140734822643
30
0
10
-5.6991653568450484
20
100.25441154390347
30
0
10
-5.9576430036202801
20
100.76284326551476
30
0
10
-6.2127386441328341
20
101.48044254590324
30
0
10
-6.4032672881714419
20
102.21014399041024
30
0
10
-6.5185115318437292
20
103.16468642682801
30
0
10
-6.4412249426459152
20
104.12225430151037
30
0
10
-6.251367136911762
20
104.87236282320838
30
0
10
-6.0449107807074913
20
105.41018540549493
30
0
10
-5.7676808557897443
20
105.9278546983052
30
0
10
-5.4297950292606592
20
106.39984938918163
30
0
10
-5.03396623092772
20
106.82443002746469
30
0
10
-4.5847148969082347
20
107.19857563908761
30
0
10
-4.105369128300822
20
107.5116959217753
30
0
10
-3.7607622940746008
20
107.68267932431327
30
0
10
-3.5943311292629234
20
107.76033020450055
30
0
0
ARC
5
148
100
AcDbEntity
8
0
100
AcDbCircle
10
-2.7487122003037801
20
105.94789299814386
30
0
40
2.0000000000000435
210
0
220
0
230
1
100
AcDbArc
50
107.10254058922115
51
115.01208822115589
0
LINE
5
149
100
AcDbEntity
8
0
100
AcDbLine
10
-3.3368776130628834
20
107.85945294939678
30
0
11
14.021223330074301
21
113.20034461185413
31
0
0
ARC
5
150
100
AcDbEntity
8
0
100
AcDbCircle
10
13.433057917315219
20
115.11190456310703
30
0
40
2.0000000000000204
210
-0
220
0
230
1
100
AcDbArc
50
287.10254058922084
51
346.4991143075676
0
ARC
5
151
100
AcDbEntity
8
0
100
AcDbCircle
10
18.489362737764708
20
113.89791050929183
30
0
40
3.1999999999999416
210
0
220
0
230
1
100
AcDbArc
50
126.26528647061492
51
166.49911430756777
0
ARC
5
152
100
AcDbEntity
8
0
100
AcDbCircle
10
15.413433849910003
20
118.09060194521463
30
0
40
2.0000000000000027
210
-0
220
0
230
1
100
AcDbArc
50
-53.734713529384905
51
17.10254058922046
0
LINE
5
153
100
AcDbEntity
8
0
100
AcDbLine
10
17.324993801162893
20
118.6787673579737
30
0
11
17.079412990608393
21
119.47691432831328
31
0
0
ARC
5
154
100
AcDbEntity
8
0
100
AcDbCircle
10
15.167853039355503
20
118.8887489155542
30
0
40
2.0000000000000022
210
0
220
-0
230
1
100
AcDbArc
50
17.102540589220872
51
85.626455589302125
0
ARC
5
155
100
AcDbEntity
8
0
100
AcDbCircle
10
13.228049780365559
20
93.525660952202799
30
0
40
27.437159191236155
210
0
220
-0
230
1
100
AcDbArc
50
85.62645558930187
51
107.102274092808
0
LINE
5
156
100
AcDbEntity
8
0
100
AcDbLine
10
5.1593777237176441
20
119.749585824874
30
0
11
-5.5608999496822875
21
116.4511320151237
31
0
0
ARC
5
157
100
AcDbEntity
8
0
100
AcDbCircle
10
-4.972743428053394
20
114.53956932819308
30
0
40
2.0000000000000018
210
0
220
0
230
1
100
AcDbArc
50
107.10227409280778
51
158.32501403683995
0
ARC
5
158
100
AcDbEntity
8
0
100
AcDbCircle
10
-7.2030488025121127
20
115.42598792945364
30
0
40
0.40000000000005526
210
0
220
0
230
1
100
AcDbArc
50
287.10227409280918
51
338.32501403683602
0
CIRCLE
5
159
100
AcDbEntity
8
0
100
AcDbCircle
10
25.122479971603546
20
18.346131889781056
30
0
40
1.25
210
0
220
0
230
1
0
CIRCLE
5
160
100
AcDbEntity
8
0
100
AcDbCircle
10
5.1877430944596226
20
21.324228328530069
30
0
40
3.2000000000000006
210
0
220
0
230
1
0
CIRCLE
5
161
100
AcDbEntity
8
0
100
AcDbCircle
10
-1.5205087811906992
20
112.85820261760193
30
0
40
1.2500000000000018
210
0
220
0
230
1
0
CIRCLE
5
162
100
AcDbEntity
8
0
100
AcDbCircle
10
0
20
18.735897443848515
30
0
40
1.25
210
0
220
0
230
1
0
CIRCLE
5
163
100
AcDbEntity
8
0
100
AcDbCircle
10
46.720427729744429
20
15.957312248869357
30
0
40
0.25000000000000355
210
0
220
0
230
1
0
CIRCLE
5
164
100
AcDbEntity
8
0
100
AcDbCircle
10
-2
20
23
30
0
40
0.2500000000000005
210
0
220
0
230
1
0
CIRCLE
5
165
100
AcDbEntity
8
0
100
AcDbCircle
10
-23.026057863587791
20
108.84135546410063
30
0
40
0.24999999999999911
210
0
220
0
230
1
0
CIRCLE
5
166
100
AcDbEntity
8
0
100
AcDbCircle
10
-27.033273714657469
20
99.179740130136196
30
0
40
1.25
210
0
220
0
230
1
0
CIRCLE
5
167
100
AcDbEntity
8
0
100
AcDbCircle
10
41.158271754162655
20
11.532914774098657
30
0
40
1.25
210
0
220
0
230
1
0
CIRCLE
5
168
100
AcDbEntity
8
0
100
AcDbCircle
10
-13.468244428934725
20
111.7821380722451
30
0
40
0.24999999999998801
210
0
220
0
230
1
0
SPLINE
5
169
100
AcDbEntity
8
0
100
AcDbSpline
70
0
71
3
72
28
73
24
74
0
42
0.000000001
43
0.0000000001
44
0.0000000001
40
0.43147393089619457
40
0.43147393089619457
40
0.43147393089619457
40
0.43147393089619457
40
0.44285302101143648
40
0.44285302101143648
40
0.44285302101143648
40
0.52404003925324805
40
0.52404003925324805
40
0.62882506089374623
40
0.62882506089374623
40
0.73366754805962309
40
0.73366754805962309
40
0.83851003522550005
40
0.83851003522550005
40
0.94333250591843032
40
0.94333250591843032
40
1.0481549766113605
40
1.0481549766113605
40
1.1529600115521976
40
1.1529600115521976
40
1.234167043093946
40
1.234167043093946
40
1.234167043093946
40
1.2455461342135192
40
1.2455461342135192
40
1.2455461342135192
40
1.2455461342135192
10
67.943799429659464
20
-0.33357658386185013
30
0
10
67.940407034734648
20
-0.33311162645280046
30
0
10
67.937014615950432
20
-0.33264684320000693
30
0
10
67.933622173304173
20
-0.33218223410615139
30
0
10
67.90941792672416
20
-0.32886736212639234
30
0
10
67.843060150569428
20
-0.31976060845555776
30
0
10
67.593595409290273
20
-0.28610667777236426
30
0
10
67.381549009054964
20
-0.25783166934299301
30
0
10
66.891808753958514
20
-0.19476671699190759
30
0
10
66.58140506153768
20
-0.1557833774624261
30
0
10
65.900697555545321
20
-0.074372930098752205
30
0
10
65.53038022155944
20
-0.032050199064249163
30
0
10
64.835596360995481
20
0.043534881247862776
30
0
10
64.464907461928334
20
0.081826526700195246
30
0
10
63.782719303438384
20
0.1486869666754323
30
0
10
63.471229277731268
20
0.17736053094067666
30
0
10
62.979314197920161
20
0.22108921530259246
30
0
10
62.766075302120598
20
0.23907922029171735
30
0
10
62.515115497316259
20
0.25986389504224999
30
0
10
62.448326005693374
20
0.26524140297405996
30
0
10
62.42396941318944
20
0.26720927165683928
30
0
10
62.42055645891439
20
0.26748501818552739
30
0
10
62.41714349050126
20
0.26776058950118775
30
0
10
62.413730507932321
20
0.26803598560827874
30
0
0
SPLINE
5
170
100
AcDbEntity
8
0
100
AcDbSpline
70
0
71
3
72
28
73
24
74
0
42
0.000000001
43
0.0000000001
44
0.0000000001
40
0.43147393090567071
40
0.43147393090567071
40
0.43147393090567071
40
0.43147393090567071
40
0.44285302101144197
40
0.44285302101144197
40
0.44285302101144197
40
0.5240400392532486
40
0.5240400392532486
40
0.6288250608937469
40
0.6288250608937469
40
0.73366754805962375
40
0.73366754805962375
40
0.83851003522550061
40
0.83851003522550061
40
0.94333250591843032
40
0.94333250591843032
40
1.04815497661136
40
1.04815497661136
40
1.1529600115521972
40
1.1529600115521972
40
1.2341670430939431
40
1.2341670430939431
40
1.2341670430939431
40
1.2455461342107943
40
1.2455461342107943
40
1.2455461342107943
40
1.2455461342107943
10
60.984858259495653
20
0.42348205996897126
30
0
10
60.98146586457365
20
0.42394701737763418
30
0
10
60.978073445783785
20
0.42441180063120154
30
0
10
60.974681003140354
20
0.42487640972467067
30
0
10
60.950476756560334
20
0.42819128170443088
30
0
10
60.88411898040561
20
0.43729803537526013
30
0
10
60.634654239126455
20
0.47095196605845274
30
0
10
60.422607838891139
20
0.49922697448782938
30
0
10
59.932867583794703
20
0.56229192683891482
30
0
10
59.622463891373876
20
0.60127526636839179
30
0
10
58.941756385381517
20
0.68268571373206544
30
0
10
58.571439051395629
20
0.72500844476657222
30
0
10
57.87665519083167
20
0.80059352507868387
30
0
10
57.505966291764508
20
0.83888517053101275
30
0
10
56.823778133274566
20
0.90574561050624913
30
0
10
56.512288107567471
20
0.93441917477149694
30
0
10
56.020373027756364
20
0.97814785913341273
30
0
10
55.807134131956772
20
0.99613786412253247
30
0
10
55.556174327152448
20
1.0169225388730649
30
0
10
55.489384835529556
20
1.0223000468048806
30
0
10
55.465028243025628
20
1.0242679154876597
30
0
10
55.461615288751389
20
1.024543662016282
30
0
10
55.458202320336625
20
1.0248192333320745
30
0
10
55.454789337768503
20
1.0250946294390995
30
0
0
SPLINE
5
171
100
AcDbEntity
8
0
100
AcDbSpline
70
0
71
3
72
28
73
24
74
0
42
0.000000001
43
0.0000000001
44
0.0000000001
40
0.43147393088393066
40
0.43147393088393066
40
0.43147393088393066
40
0.43147393088393066
40
0.44285302101144408
40
0.44285302101144408
40
0.44285302101144408
40
0.52404003925324849
40
0.52404003925324849
40
0.62882506089374668
40
0.62882506089374668
40
0.73366754805962353
40
0.73366754805962353
40
0.83851003522550038
40
0.83851003522550038
40
0.94333250591842999
40
0.94333250591842999
40
1.0481549766113596
40
1.0481549766113596
40
1.1529600115521967
40
1.1529600115521967
40
1.2341670430939371
40
1.2341670430939371
40
1.2341670430939371
40
1.2455461342154863
40
1.2455461342154863
40
1.2455461342154863
40
1.2455461342154863
10
74.902740599823304
20
-1.0906352276926747
30
0
10
74.899348204894821
20
-1.0901702702831235
30
0
10
74.895955786117923
20
-1.0897054870313319
30
0
10
74.892563343468026
20
-1.0892408779369751
30
0
10
74.868359096888014
20
-1.085926005957216
30
0
10
74.802001320733254
20
-1.0768192522863904
30
-5.5511151231257827e-16
10
74.552536579454113
20
-1.043165321603198
30
0
10
74.340490179218804
20
-1.0148903131738154
30
0
10
73.850749924122368
20
-0.95182536082273006
30
0
10
73.540346231701548
20
-0.91284202129324299
30
0
10
72.859638725709189
20
-0.83143157392956912
30
0
10
72.48932139172328
20
-0.78910884289507266
30
0
10
71.794537531159335
20
-0.71352376258296102
30
0
10
71.423848632092188
20
-0.67523211713063946
30
0
10
70.741660473602238
20
-0.60837167715540208
30
0
10
70.430170447895108
20
-0.57969811289014794
30
0
10
69.938255368084015
20
-0.53596942852823215
30
0
10
69.725016472284423
20
-0.51797942353910054
30
0
10
69.474056667480099
20
-0.49719474878856884
30
0
10
69.407267175857214
20
-0.49181724085676459
30
0
10
69.382910583353294
20
-0.48984937217398539
30
0
10
69.379497629077648
20
-0.48957362564524931
30
0
10
69.376084660665697
20
-0.48929805432968421
30
0
10
69.372671678096168
20
-0.48902265822254531
30
0
0
SPLINE
5
172
100
AcDbEntity
8
0
100
AcDbSpline
70
0
71
3
72
17
73
13
74
0
42
0.000000001
43
0.0000000001
44
0.0000000001
40
-0.084831905702542926
40
-0.084831905702542926
40
-0.084831905702542926
40
-0.084831905702542926
40
-0.079450687181696372
40
-0.079450687181696372
40
-0.079450687181696372
40
-0.067803779990324053
40
-0.067803779990324053
40
-0.045202519994207865
40
-0.045202519994207865
40
-0.022601259997103933
40
-0.022601259997103933
40
0
40
0
40
0
40
0
10
53.994752373889725
20
1.1839310927441824
30
0
10
53.991272074926677
20
1.1843308549177591
30
0
10
53.987791755091614
20
1.1847304342107099
30
0
10
53.984311414138276
20
1.185129830650596
30
0
10
53.976778694937089
20
1.1859942692995558
30
0
10
53.96505152869171
20
1.1873394150676053
30
0
10
53.918958202218661
20
1.1926125665008915
30
0
10
53.873079097701158
20
1.1978458157063396
30
0
10
53.767210035369658
20
1.2098179357966687
30
0
10
53.700163256778609
20
1.2173540042767022
30
0
10
53.553239516643004
20
1.2336791767542779
30
0
10
53.473362013608288
20
1.2424634445061999
30
0
10
53.398466376136177
20
1.250611291764427
30
0
0
LINE
5
173
100
AcDbEntity
8
0
100
AcDbLine
10
42.810934452958378
20
2.4024219427355935
30
0
11
53.398466376136184
21
1.250611291764427
31
0
0
SPLINE
5
174
100
AcDbEntity
8
0
100
AcDbSpline
70
0
71
3
72
17
73
13
74
0
42
0.000000001
43
0.0000000001
44
0.0000000001
40
-0.36162015994576202
40
-0.36162015994576202
40
-0.36162015994576202
40
-0.36162015994576202
40
-0.33901889994865769
40
-0.33901889994865769
40
-0.31641763995155336
40
-0.31641763995155336
40
-0.29381637995543741
40
-0.29381637995543741
40
-0.2821694725215827
40
-0.2821694725215827
40
-0.2821694725215827
40
-0.2767882541917861
40
-0.2767882541917861
40
-0.2767882541917861
40
-0.2767882541917861
10
42.810934452958371
20
2.4024219427355797
30
0
10
42.736038815486253
20
2.4105697899938061
30
0
10
42.656141003244485
20
2.4191673739551356
30
0
10
42.509143843023587
20
2.4348176633727476
30
0
10
42.442045006177587
20
2.4418752083771995
30
0
10
42.336078169239009
20
2.4529485767734909
30
0
10
42.290147006875415
20
2.4577033062612044
30
0
10
42.243998053279768
20
2.4624651319504904
30
0
10
42.232255973201873
20
2.4636731900897271
30
0
10
42.224713586297646
20
2.4644487623425722
30
0
10
42.221228778773423
20
2.4648070998366061
30
0
10
42.217743952416583
20
2.465165254228125
30
0
10
42.214259107255259
20
2.465523225514926
30
0
0
LINE
5
175
100
AcDbEntity
8
0
100
AcDbLine
10
39.536146084516403
20
4.4292373608331568
30
0
11
39.534268426504212
21
4.429554884705615
31
0
0
LINE
5
176
100
AcDbEntity
8
0
100
AcDbLine
10
67.848172427109034
20
3.700427234021237
30
0
11
63.374567389146549
21
4.1871077907696259
31
0
0
LINE
5
177
100
AcDbEntity
8
0
100
AcDbLine
10
75.403594269001204
20
2.8784778492906287
30
0
11
72.570311078291653
21
3.1867088685646063
31
0
0
LINE
5
178
100
AcDbEntity
8
0
100
AcDbLine
10
72.570311078291653
20
3.1867088685646063
30
0
11
70.333508559310388
21
3.4300491469388019
31
0
0
LINE
5
179
100
AcDbEntity
8
0
100
AcDbLine
10
60.889231256945209
20
4.4574858778520596
30
0
11
58.652428737963987
21
4.7008261562262517
31
0
0
LINE
5
180
100
AcDbEntity
8
0
100
AcDbLine
10
58.652428737963987
20
4.7008261562262517
30
0
11
55.819145547254436
21
5.0090571755002289
31
0
0
LINE
5
181
100
AcDbEntity
8
0
100
AcDbLine
10
85.241511909195737
20
-2.0141590516080572
30
0
11
85.311808964223246
21
-1.3679831253986527
31
0
0
LINE
5
182
100
AcDbEntity
8
0
100
AcDbLine
10
-1.5774899176306652
20
7.4307583256520289
30
0
11
-1.5071913119826874
21
8.0769485052838004
31
0
0
SPLINE
5
183
100
AcDbEntity
8
0
100
AcDbSpline
70
0
71
3
72
8
73
4
74
0
42
0.000000001
43
0.0000000001
44
0.0000000001
40
0.50000032836959807
40
0.50000032836959807
40
0.50000032836959807
40
0.50000032836959807
40
1
40
1
40
1
40
1
10
-1.5774899192363625
20
7.430758310731874
30
0
10
-1.3124131045535656
20
7.4016855135344297
30
0
10
-1.0473435932535189
20
7.3725456454452249
30
0
10
-0.78228098089599074
20
7.3433424206563656
30
0
0
SPLINE
5
184
100
AcDbEntity
8
0
100
AcDbSpline
70
0
71
3
72
8
73
4
74
0
42
0.000000001
43
0.0000000001
44
0.0000000001
40
0
40
0
40
0
40
0
40
0.49999964266451308
40
0.49999964266451308
40
0.49999964266451308
40
0.49999964266451308
10
84.446100135297613
20
-1.9286086363027832
30
0
10
84.711244543308979
20
-1.9570597786421207
30
0
10
84.976381942475115
20
-1.98557528697645
30
0
10
85.241511908064041
20
-2.0141590618485505
30
0
0
LINE
5
185
100
AcDbEntity
8
0
100
AcDbLine
10
84.446100135297613
20
-1.9286086363027832
30
0
11
84.424569337771288
21
-2.1265087283980302
31
0
0
LINE
5
186
100
AcDbEntity
8
0
100
AcDbLine
10
-0.78228098089599063
20
7.3433424206563656
30
0
11
-0.8038103902930237
21
7.1454307800814938
31
0
0
SPLINE
5
187
100
AcDbEntity
8
0
100
AcDbSpline
70
0
71
3
72
8
73
4
74
0
42
0.000000001
43
0.0000000001
44
0.0000000001
40
0.49999963375547246
40
0.49999963375547246
40
0.49999963375547246
40
0.49999963375547246
40
1
40
1
40
1
40
1
10
85.311808962980095
20
-1.3679831366604389
30
0
10
85.576939209660225
20
-1.3965678899581868
30
0
10
85.842061959219109
20
-1.4252214927811497
30
0
10
86.107176771189714
20
-1.4539479901415053
30
0
0
SPLINE
5
188
100
AcDbEntity
8
0
100
AcDbSpline
70
0
71
3
72
8
73
4
74
0
42
0.000000001
43
0.0000000001
44
0.0000000001
40
0
40
0
40
0
40
0
40
0.50000032539641737
40
0.50000032539641737
40
0.50000032539641737
40
0.50000032539641737
10
-2.3024442857708531
20
8.1639696158067157
30
0
10
-2.0373524789608064
20
8.1350312915347072
30
0
10
-1.7722682891151447
20
8.1060230171625705
30
0
10
-1.5071913135349011
20
8.0769484908609162
30
0
0
SPLINE
5
189
100
AcDbEntity
8
0
100
AcDbSpline
70
0
71
3
72
14
73
10
74
0
42
0.000000001
43
0.0000000001
44
0.0000000001
40
1.2499433898824178e-06
40
1.2499433898824178e-06
40
1.2499433898824178e-06
40
1.2499433898824178e-06
40
0.25
40
0.25
40
0.25
40
0.5
40
0.5
40
0.5
40
0.9999999955555644
40
0.9999999955555644
40
0.9999999955555644
40
0.9999999955555644
10
82.204376357158736
20
0.87446357313936574
30
0
10
82.857768599407805
20
0.63058847835651544
30
0
10
83.434057004703078
20
0.40779962022780569
30
0
10
83.933748614511344
20
0.21075339454846298
30
0
10
84.430944984891624
20
0.014691130780422543
30
0
10
84.847472584524425
20
-0.15396385557401565
30
0
10
85.183730385634888
20
-0.2915476183983412
30
0
10
85.853837681087541
20
-0.5657297575187904
30
0
10
86.188374791860909
20
-0.70756637614337592
30
0
10
86.188290197316491
20
-0.70834715046025454
30
0
0
SPLINE
5
190
100
AcDbEntity
8
0
100
AcDbSpline
70
0
71
3
72
14
73
10
74
0
42
0.000000001
43
0.0000000001
44
0.0000000001
40
-0.7345209974541993
40
-0.7345209974541993
40
-0.7345209974541993
40
-0.7345209974541993
40
-0.55038932297637433
40
-0.55038932297637433
40
-0.36748795977450061
40
-0.36748795977450061
40
-0.18429207045044482
40
-0.18429207045044482
40
-4.813618315690512e-09
40
-4.813618315690512e-09
40
-4.813618315690512e-09
40
-4.813618315690512e-09
10
76.273177414076955
20
2.1265957911375302
30
0
10
76.883379177044077
20
2.0600460957192319
30
0
10
77.488690602150626
20
1.9775819595240143
30
0
10
78.651201188698195
20
1.7890148773886063
30
0
10
79.205614102364436
20
1.6836037347256845
30
0
10
80.231331348359362
20
1.4600465950736699
30
0
10
80.700724002360403
20
1.3423263268582433
30
0
10
81.536274216123786
20
1.1059972315494662
30
0
10
81.90146611449704
20
0.98751842455182803
30
0
10
82.204366191559686
20
0.87446377174740153
30
0
0
SPLINE
5
191
100
AcDbEntity
8
0
100
AcDbSpline
70
0
71
3
72
29
73
25
74
0
42
0.000000001
43
0.0000000001
44
0.0000000001
40
7.9045560141018477e-10
40
7.9045560141018477e-10
40
7.9045560141018477e-10
40
7.9045560141018477e-10
40
0.03125
40
0.03125
40
0.03125
40
0.046875
40
0.046875
40
0.046875
40
0.0625
40
0.0625
40
0.0625
40
0.09375
40
0.09375
40
0.09375
40
0.109375
40
0.109375
40
0.109375
40
0.125
40
0.125
40
0.125
40
0.140625
40
0.140625
40
0.140625
40
0.15266579923112367
40
0.15266579923112367
40
0.15266579923112367
40
0.15266579923112367
10
-2.221330859643516
20
8.9095704554910622
30
0
10
-2.2212964229489609
20
8.9098858732058943
30
0
10
-2.1295048072061604
20
8.9122467976505213
30
0
10
-1.9460482340938932
20
8.9158063145775017
30
0
10
-1.8536898699589082
20
8.9175982981238491
30
0
10
-1.7384793626354575
20
8.9196573035285862
30
0
10
-1.6004420921582971
20
8.9217502542166329
30
0
10
-1.4603081750832838
20
8.9238749947098857
30
0
10
-1.2989965977580367
20
8.9259934494638635
30
0
10
-1.1165634552276389
20
8.9275904717850167
30
0
10
-0.74307812207713642
20
8.9308599676967333
30
0
10
-0.28749317294328169
20
8.9322607778140579
30
0
10
0.24971467085838084
20
8.9274149502327038
30
0
10
0.52466554323478676
20
8.9249347844342104
30
0
10
0.81980966310940306
20
8.9207645480648221
30
0
10
1.1350835812310174
20
8.9143215573612693
30
0
10
1.4548939848345892
20
8.9077858582790412
30
0
10
1.7892639461754785
20
8.8990294645946655
30
0
10
2.1381180411063063
20
8.8873597215455398
30
0
10
2.4918874479623936
20
8.875525553230931
30
0
10
2.8626079406489362
20
8.860693411502071
30
0
10
3.2502195822066438
20
8.8423128675937406
30
0
10
3.5528759638095937
20
8.8279609020830225
30
0
10
3.8613059505269081
20
8.8116588821122477
30
0
10
4.1754819348352381
20
8.793153867070524
30
0
0
SPLINE
5
192
100
AcDbEntity
8
0
100
AcDbSpline
70
0
71
3
72
8
73
4
74
0
42
0.000000001
43
0.0000000001
44
0.0000000001
40
0.4221896789100234
40
0.4221896789100234
40
0.4221896789100234
40
0.4221896789100234
40
0.43166849734250545
40
0.43166849734250545
40
0.43166849734250545
40
0.43166849734250545
10
26.329895772281702
20
7.1701125666912002
30
0
10
26.595844517593612
20
7.1525048997457352
30
0
10
26.862174829658159
20
7.1349498431840708
30
0
10
27.128886555791659
20
7.1174480307065142
30
0
0
SPLINE
5
193
100
AcDbEntity
8
0
100
AcDbSpline
70
0
71
3
72
14
73
10
74
0
42
0.000000001
43
0.0000000001
44
0.0000000001
40
0.59914390607429091
40
0.59914390607429091
40
0.59914390607429091
40
0.59914390607429091
40
0.625
40
0.625
40
0.625
40
0.75
40
0.75
40
0.75
40
0.75875923848550664
40
0.75875923848550664
40
0.75875923848550664
40
0.75875923848550664
10
40.687967790875696
20
6.0037280164795437
30
0
10
41.514005385794221
20
5.9137665254741156
30
0
10
42.527039653743955
20
5.803430747862885
30
0
10
43.727069684608082
20
5.6727123259493855
30
0
10
47.186447450204497
20
5.2958847543962086
30
0
10
50.802680996611699
20
4.9018661715990444
30
0
10
54.575786493517782
20
4.490805071267939
30
0
10
54.851616967818728
20
4.4607547113286348
30
0
10
55.126661704192792
20
4.4307901221462718
30
0
10
55.400920703549048
20
4.4009113112420986
30
0
0
LINE
5
194
100
AcDbEntity
8
0
100
AcDbLine
10
75.680890657310286
20
2.1911985330866637
30
0
11
76.273178754361311
21
2.1266085221853714
31
0
0
LINE
5
195
100
AcDbEntity
8
0
100
AcDbLine
10
-2.3024442857708531
20
8.1639696158067157
30
0
11
-2.2213572886023094
21
8.9093291776485639
31
0
0
LINE
5
196
100
AcDbEntity
8
0
100
AcDbLine
10
86.107176771189714
20
-1.4539479901415053
30
0
11
86.188258444022651
21
-0.70864137874261757
31
0
0
LINE
5
197
100
AcDbEntity
8
0
100
AcDbLine
10
4.3726876106861292
20
10.605883578106665
30
0
11
21.270548230763858
21
8.767576408687507
31
0
0
LINE
5
198
100
AcDbEntity
8
0
100
AcDbLine
10
26.442472464634257
20
8.2049261648146317
30
0
11
23.261242215416509
21
8.5510101162801497
31
0
0
LINE
5
199
100
AcDbEntity
8
0
100
AcDbLine
10
23.261242215416509
20
8.5510101162801497
30
0
11
21.270548230763858
21
8.767576408687507
31
0
0
LINE
5
200
100
AcDbEntity
8
0
100
AcDbLine
10
61.664375693043645
20
8.346464034538684
30
0
11
61.275031247644947
21
4.7675800041687095
31
0
0
LINE
5
201
100
AcDbEntity
8
0
100
AcDbLine
10
63.45381770822862
20
8.1517918118393276
30
0
11
63.064473262829907
21
4.5729077814693539
31
0
0
LINE
5
202
100
AcDbEntity
8
0
100
AcDbLine
10
63.143723581911971
20
8.53759180253906
30
0
11
62.050175683743383
21
8.6565581608553313
31
0
0
LINE
5
203
100
AcDbEntity
8
0
100
AcDbLine
10
68.623316863207478
20
7.5894053907078574
30
0
11
68.233972417808758
21
4.0105213603378855
31
0
0
LINE
5
204
100
AcDbEntity
8
0
100
AcDbLine
10
70.412758878392466
20
7.3947331680085053
30
0
11
70.023414432993746
21
3.8158491376385317
31
0
0
LINE
5
205
100
AcDbEntity
8
0
100
AcDbLine
10
70.10266475207581
20
7.780533158708236
30
0
11
69.009116853907216
21
7.8994995170245064
31
0
0
ARC
5
206
100
AcDbEntity
8
0
100
AcDbCircle
10
60.92708418913675
20
4.8054329363602584
30
0
40
0.35000000000000814
210
0
220
0
230
1
100
AcDbArc
50
263.79124669639521
51
353.7912466963939
0
ARC
5
207
100
AcDbEntity
8
0
100
AcDbCircle
10
62.012322751551849
20
8.3086111023471449
30
0
40
0.34999999999999393
210
0
220
-0
230
1
100
AcDbArc
50
83.791246696396129
51
173.79124669639563
0
ARC
5
208
100
AcDbEntity
8
0
100
AcDbCircle
10
63.10587064972043
20
8.1896447440308666
30
0
40
0.35000000000000198
210
0
220
0
230
1
100
AcDbArc
50
-6.2087533036046061
51
83.791246696395092
0
ARC
5
209
100
AcDbEntity
8
0
100
AcDbCircle
10
63.412420321338097
20
4.5350548492778167
30
0
40
0.35000000000000187
210
0
220
0
230
1
100
AcDbArc
50
173.79124669639563
51
263.7912466963939
0
ARC
5
210
100
AcDbEntity
8
0
100
AcDbCircle
10
67.886025359300575
20
4.0483742925294282
30
0
40
0.34999999999999942
210
0
220
0
230
1
100
AcDbArc
50
263.79124669639504
51
353.79124669639469
0
ARC
5
211
100
AcDbEntity
8
0
100
AcDbCircle
10
68.971263921715675
20
7.5515524585163076
30
0
40
0.35000000000000719
210
0
220
-0
230
1
100
AcDbArc
50
83.791246696395177
51
173.79124669639378
0
ARC
5
212
100
AcDbEntity
8
0
100
AcDbCircle
10
70.064811819884284
20
7.4325861002000462
30
0
40
0.34999999999998466
210
0
220
0
230
1
100
AcDbArc
50
-6.208753303605115
51
83.791246696397337
0
ARC
5
213
100
AcDbEntity
8
0
100
AcDbCircle
10
70.371361491501929
20
3.7779962054469909
30
0
40
0.34999999999999343
210
0
220
0
230
1
100
AcDbArc
50
173.79124669639492
51
263.79124669639504
0
LINE
5
214
100
AcDbEntity
8
0
100
AcDbLine
10
27.237780026978253
20
8.118405177127789
30
0
11
40.758008586153679
21
6.6475483833993341
31
0
0
SPLINE
5
215
100
AcDbEntity
8
0
100
AcDbSpline
70
0
71
3
72
82
73
78
74
0
42
0.000000001
43
0.0000000001
44
0.0000000001
40
-0.79874082997338314
40
-0.79874082997338314
40
-0.79874082997338314
40
-0.79874082997338314
40
-0.75812689981144232
40
-0.75812689981144232
40
-0.71746451807397449
40
-0.71746451807397449
40
-0.67679924136903513
40
-0.67679924136903513
40
-0.63612646236895787
40
-0.63612646236895787
40
-0.59544280226913349
40
-0.59544280226913349
40
-0.55474889003950945
40
-0.55474889003950945
40
-0.51404874341239992
40
-0.51404874341239992
40
-0.47334446040406458
40
-0.47334446040406458
40
-0.43263720723060051
40
-0.43263720723060051
40
-0.39192948595626842
40
-0.39192948595626842
40
-0.3512272250136953
40
-0.3512272250136953
40
-0.31053784552084318
40
-0.31053784552084318
40
-0.26986488098989309
40
-0.26986488098989309
40
-0.22920913474711041
40
-0.22920913474711041
40
-0.18857091537056922
40
-0.18857091537056922
40
-0.14795216598063787
40
-0.14795216598063787
40
-0.10735422572281431
40
-0.10735422572281431
40
-0.066773495417749129
40
-0.066773495417749129
40
-0.026203509692201629
40
-0.026203509692201629
40
0.014362143702328897
40
0.014362143702328897
40
0.054927157712505122
40
0.054927157712505122
40
0.095494913799109044
40
0.095494913799109044
40
0.13607174301478675
40
0.13607174301478675
40
0.17666444323117347
40
0.17666444323117347
40
0.21727733409645222
40
0.21727733409645222
40
0.25790986871994792
40
0.25790986871994792
40
0.29856012577887359
40
0.29856012577887359
40
0.33922793558613223
40
0.33922793558613223
40
0.37991289825701058
40
0.37991289825701058
40
0.42061217580242666
40
0.42061217580242666
40
0.46131893130510548
40
0.46131893130510548
40
0.50202662726665359
40
0.50202662726665359
40
0.54273211666580012
40
0.54273211666580012
40
0.58343388150318543
40
0.58343388150318543
40
0.6241300927612754
40
0.6241300927612754
40
0.66481755932835396
40
0.66481755932835396
40
0.73177693736328764
40
0.73177693736328764
40
0.79873631539822121
40
0.79873631539822121
40
0.79873631539822121
40
0.79873631539822121
10
38.947053059724688
20
2.8211377607523835
30
0
10
38.947003719731647
20
2.8211458579795092
30
0
10
38.941360225678935
20
2.8220720164629709
30
0
10
38.91860969243821
20
2.8257996026623355
30
0
10
38.901538312894168
20
2.8285951594884393
30
0
10
38.856122703258144
20
2.8360122728522135
30
0
10
38.827777710306478
20
2.8406339271622292
30
0
10
38.7599904513634
20
2.8516450848632964
30
0
10
38.720546340185699
20
2.8580348440717929
30
0
10
38.630803905364928
20
2.8725025300464457
30
0
10
38.580502995299419
20
2.8805808105978272
30
0
10
38.469355254546478
20
2.8983259300035762
30
0
10
38.408505303965626
20
2.9079931861044623
30
0
10
38.276637950039877
20
2.9287974836008872
30
0
10
38.205619068701878
20
2.9399346699880398
30
0
10
38.053863279974919
20
2.963542684110569
30
0
10
37.97312562443463
20
2.9760135360043409
30
0
10
37.802446632435746
20
3.0021384633302435
30
0
10
37.712504987392265
20
3.0157924931719489
30
0
10
37.523992122514109
20
3.0441221758837673
30
0
10
37.425421158827135
20
3.058797712630692
30
0
10
37.220278243232123
20
3.0890008069220616
30
0
10
37.1137066927107
20
3.1045282671110868
30
0
10
36.893251857474837
20
3.1362591805224813
30
0
10
36.779371153755392
20
3.1524622969603739
30
0
10
36.545037942102248
20
3.1853661533603721
30
0
10
36.424588494451697
20
3.2020665568018272
30
0
10
36.177896228093068
20
3.2357883837313466
30
0
10
36.051656342333459
20
3.2528095380369102
30
0
10
35.794191678804786
20
3.2870013041542814
30
0
10
35.662969343733842
20
3.304171757868108
30
0
10
35.396371709093387
20
3.3384983170188325
30
0
10
35.260997850451233
20
3.3556544395038546
30
0
10
34.986961058452366
20
3.3897968762771296
30
0
10
34.848300268995082
20
3.4067831684152927
30
0
10
34.568569807114685
20
3.4404423844395975
30
0
10
34.427501690140737
20
3.457115342187846
30
0
10
34.143842918914004
20
3.4900184266729708
30
0
10
34.001253187642583
20
3.5062485949877447
30
0
10
33.715438832141629
20
3.5381518395033229
30
0
10
33.572214334900195
20
3.5538249701409956
30
0
10
33.286017726297167
20
3.5845154727007116
30
0
10
33.143045363227309
20
3.5995328774438655
30
0
10
32.858252065039352
20
3.6288276443034215
30
0
10
32.716431716272069
20
3.6431049150715884
30
0
10
32.43483582179055
20
3.6708512584053183
30
0
10
32.29506126440856
20
3.684320128281096
30
0
10
32.018437804792327
20
3.7103976034315593
30
0
10
31.88159052122522
20
3.723005875523091
30
0
10
31.611686330938017
20
3.747325449187656
30
0
10
31.478631094747573
20
3.7590363829091804
30
0
10
31.217158551776343
20
3.7815387000546425
30
0
10
31.088743579712744
20
3.7923296828124347
30
0
10
30.837389056656981
20
3.8129816295608205
30
0
10
30.714452395424502
20
3.8228422109650135
30
0
10
30.474860368765224
20
3.8416351630973606
30
0
10
30.358208160324512
20
3.850567173797073
30
0
10
30.131951267481853
20
3.8675155605115608
30
0
10
30.02234987444772
20
3.8755316091038305
30
0
10
29.810915490115534
20
3.8906695165139196
30
0
10
29.709084904273752
20
3.8977911669283634
30
0
10
29.513864712835915
20
3.9111683945109577
30
0
10
29.420476860100109
20
3.9174238727414776
30
0
10
29.242767423765081
20
3.9291011257955857
30
0
10
29.158446432601735
20
3.9345229322250566
30
0
10
28.999430451140164
20
3.9445683104492284
30
0
10
28.924735207678857
20
3.9491919831578675
30
0
10
28.785460759301778
20
3.9576775033224534
30
0
10
28.720880751569034
20
3.961539482035255
30
0
10
28.602255747723156
20
3.9685368222218709
30
0
10
28.54820898156072
20
3.9716723619336678
30
0
10
28.450999693465121
20
3.9772487943560586
30
0
10
28.407835209965707
20
3.9796898640804601
30
0
10
28.308389698702253
20
3.9852658597660806
30
0
10
28.261650282737008
20
3.987832470405265
30
0
10
28.199236764738696
20
3.9912447933655946
30
0
10
28.1836137345949
20
3.9920879994454186
30
0
10
28.183563807260583
20
3.9920906941231764
30
0
0
ARC
5
216
100
AcDbEntity
8
0
100
AcDbCircle
10
38.966476249986911
20
2.9395554101118382
30
0
40
0.11999999999908884
210
0
220
0
230
1
100
AcDbArc
50
260.68513092449433
51
263.79124669641732
0
ARC
5
217
100
AcDbEntity
8
0
100
AcDbCircle
10
28.190058780761902
20
4.1119147957021873
30
0
40
0.11999999999999991
210
0
220
0
230
1
100
AcDbArc
50
263.79124669640322
51
266.89736246828704
0
LINE
5
218
100
AcDbEntity
8
0
100
AcDbLine
10
-0.8038103902930237
20
7.1454307800814938
30
0
11
5.3119882163293886
21
6.4800970625149237
31
0
0
LINE
5
219
100
AcDbEntity
8
0
100
AcDbLine
10
25.719383632344503
20
4.2599899054078563
30
0
11
28.177080632581962
21
3.99261866135652
31
0
0
LINE
5
220
100
AcDbEntity
8
0
100
AcDbLine
10
38.953498101807099
20
2.8202592757670741
30
0
11
42.214259107255259
21
2.465523225514926
31
0
0
LINE
5
221
100
AcDbEntity
8
0
100
AcDbLine
10
53.994752373889725
20
1.1839310927441824
30
0
11
55.454789337768496
21
1.0250946294390992
31
0
0
LINE
5
222
100
AcDbEntity
8
0
100
AcDbLine
10
60.984858259495653
20
0.42348205996897126
30
0
11
62.413730507932314
21
0.26803598560827874
31
0
0
LINE
5
223
100
AcDbEntity
8
0
100
AcDbLine
10
67.943799429659464
20
-0.33357658386185013
30
0
11
69.372671678096154
21
-0.48902265822254531
31
0
0
LINE
5
224
100
AcDbEntity
8
0
100
AcDbLine
10
74.902740599823304
20
-1.0906352276926747
30
0
11
84.424569337771288
21
-2.1265087283980302
31
0
0
SPLINE
5
225
100
AcDbEntity
8
0
100
AcDbSpline
70
0
71
3
72
78
73
74
74
0
42
0.000000001
43
0.0000000001
44
0.0000000001
40
0
40
0
40
0
40
0
40
0.059335578256550066
40
0.059335578256550066
40
0.1186784273968515
40
0.1186784273968515
40
0.1780504509867134
40
0.1780504509867134
40
0.23745208160715833
40
0.23745208160715833
40
0.29687991671355624
40
0.29687991671355624
40
0.35632399626321615
40
0.35632399626321615
40
0.41576872956788313
40
0.41576872956788313
40
0.47520163897622825
40
0.47520163897622825
40
0.53461343432784403
40
0.53461343432784403
40
0.59399563025257152
40
0.59399563025257152
40
0.65333802160018439
40
0.65333802160018439
40
0.71263112687278707
40
0.71263112687278707
40
0.77187437296922323
40
0.77187437296922323
40
0.83107422609753989
40
0.83107422609753989
40
0.89024018273700478
40
0.89024018273700478
40
0.94938065843603736
40
0.94938065843603736
40
1.0085041878679044
40
1.0085041878679044
40
1.0676254661091307
40
1.0676254661091307
40
1.1267619152333248
40
1.1267619152333248
40
1.1859286780575418
40
1.1859286780575418
40
1.245133912979139
40
1.245133912979139
40
1.3043804147983997
40
1.3043804147983997
40
1.3636719350819047
40
1.3636719350819047
40
1.4230106925352319
40
1.4230106925352319
40
1.4823938454677579
40
1.4823938454677579
40
1.5418104753346311
40
1.5418104753346311
40
1.6012454237566007
40
1.6012454237566007
40
1.6606872299952471
40
1.6606872299952471
40
1.7201268300806178
40
1.7201268300806178
40
1.7795550480355509
40
1.7795550480355509
40
1.8389603011243456
40
1.8389603011243456
40
1.8983330679975778
40
1.8983330679975778
40
1.9576725583997328
40
1.9576725583997328
40
2.0042908097323533
40
2.0042908097323533
40
2.0742181867312839
40
2.0742181867312839
40
2.1441455637302149
40
2.1441455637302149
40
2.1441455637302149
40
2.1441455637302149
10
19.823756638828861
20
4.9190326126256547
30
0
10
19.775020956870588
20
4.9279100400710201
30
0
10
19.718737991743744
20
4.9381259800542701
30
0
10
19.591423162219201
20
4.9610937863784637
30
0
10
19.520389517411523
20
4.9738458650341038
30
0
10
19.363988153834303
20
5.0017150004987005
30
0
10
19.27861358686819
20
5.0168330729544461
30
0
10
19.094051305766296
20
5.049229713362938
30
0
10
18.994857095765706
20
5.0665091650360772
30
0
10
18.783269187172941
20
5.1029965850915708
30
0
10
18.670870224383247
20
5.1222051774689534
30
0
10
18.433575205814069
20
5.1622960952237182
30
0
10
18.308674735876224
20
5.1831789036574483
30
0
10
18.047174026764608
20
5.2263440267776673
30
0
10
17.910573872600381
20
5.2486261647510162
30
0
10
17.626562166902989
20
5.294301860982781
30
0
10
17.479153191615652
20
5.3176949738861641
30
0
10
17.174486576227299
20
5.3652983122195703
30
0
10
17.017233017301457
20
5.3895080109333984
30
0
10
16.693901278455087
20
5.4384507156424142
30
0
10
16.527828088430564
20
5.463183243623801
30
0
10
16.187929657300636
20
5.5128845643594158
30
0
10
16.014108424912013
20
5.5378532360333388
30
0
10
15.659840903638305
20
5.5877497364196245
30
0
10
15.47940070865716
20
5.6126773835937342
30
0
10
15.113058855154877
20
5.6622311386673658
30
0
10
14.927162550376176
20
5.6868572905146042
30
0
10
14.551089087542067
20
5.7355693570297115
30
0
10
14.360915852471482
20
5.7596554909022357
30
0
10
13.977476550087395
20
5.8070741007946394
30
0
10
13.784212833981066
20
5.8304068957745212
30
0
10
13.395782525888752
20
5.8761327023362675
30
0
10
13.200615661735263
20
5.8985262008265726
30
0
10
12.809587105660547
20
5.9422136708245858
30
0
10
12.613726293064811
20
5.9635078541137716
30
0
10
12.22252115930376
20
6.0048659166638441
30
0
10
12.027177564844978
20
6.0249297740634553
30
0
10
11.638210570996828
20
6.0637263271367008
30
0
10
11.444588329513801
20
6.0824586572938131
30
0
10
11.06025794887907
20
6.1185205136983454
30
0
10
10.86955172784765
20
6.1358493599408366
30
0
10
10.492236923540759
20
6.1690604757112482
30
0
10
10.30563021421916
20
6.1849419434135271
30
0
10
9.9377038796370201
20
6.2152393733254838
30
0
10
9.7563886971717562
20
6.2296543401535409
30
0
10
9.4002191338775489
20
6.2570247486706601
30
0
10
9.2253704193461132
20
6.2699791403540894
30
0
10
8.883276881078535
20
6.2944575752327729
30
0
10
8.7160387538746136
20
6.3059805728759972
30
0
10
8.3902697510719122
20
6.3276457376594806
30
0
10
8.2317456164834972
20
6.3377870088143613
30
0
10
7.9244597955945215
20
6.3567552126074762
30
0
10
7.7757030829496143
20
6.3655815725296785
30
0
10
7.4889634304053736
20
6.381999060240803
30
0
10
7.3509844287084602
20
6.3895899142220536
30
0
10
7.0867388904619011
20
6.403625549690152
30
0
10
6.96047420445813
20
6.410070322013194
30
0
10
6.7205081818513204
20
6.4219090175334479
30
0
10
6.6068066908741265
20
6.4273031125346769
30
0
10
6.3927232569669403
20
6.4371372927141399
30
0
10
6.2923386957772731
20
6.4415777016336726
30
0
10
6.1055476971720788
20
6.4495985964942282
30
0
10
6.0191357827140894
20
6.4531795349394123
30
0
10
5.8608559214008888
20
6.4595685873967756
30
0
10
5.7889805240719427
20
6.4623772102517982
30
0
10
5.6602315671602064
20
6.4672988297209235
30
0
10
5.6033499054474003
20
6.4694122963588434
30
0
10
5.5154663945714857
20
6.4726231538449905
30
0
10
5.4815296370690607
20
6.4738411213775429
30
0
10
5.4086839349363247
20
6.4764290915937952
30
0
10
5.375777468984543
20
6.4775714552060997
30
0
10
5.3318662765675837
20
6.4790885899968327
30
0
10
5.3209119057473515
20
6.4794617084311437
30
0
10
5.3208619347261816
20
6.479463410501439
30
0
0
ARC
5
226
100
AcDbEntity
8
0
100
AcDbCircle
10
5.3249663645093426
20
6.5993931968606043
30
0
40
0.12000000000001515
210
0
220
0
230
1
100
AcDbArc
50
263.7912466963972
51
268.03989682500435
0
SPLINE
5
227
100
AcDbEntity
8
0
100
AcDbSpline
70
0
71
3
72
38
73
34
74
0
42
0.000000001
43
0.0000000001
44
0.0000000001
40
0.72927819823213424
40
0.72927819823213424
40
0.72927819823213424
40
0.72927819823213424
40
0.77585087766869443
40
0.77585087766869443
40
0.82247955347977753
40
0.82247955347977753
40
0.86909816448915633
40
0.86909816448915633
40
0.91570088640283409
40
0.91570088640283409
40
0.96228164625166668
40
0.96228164625166668
40
1.0088265094802795
40
1.0088265094802795
40
1.0553377246405313
40
1.0553377246405313
40
1.1018077855383612
40
1.1018077855383612
40
1.1482458601101813
40
1.1482458601101813
40
1.1946640720597255
40
1.1946640720597255
40
1.2410738663380194
40
1.2410738663380194
40
1.2874991704096503
40
1.2874991704096503
40
1.3339468349896244
40
1.3339468349896244
40
1.3804318019041202
40
1.3804318019041202
40
1.4194950731824461
40
1.4194950731824461
40
1.4585583444607719
40
1.4585583444607719
40
1.4585583444607719
40
1.4585583444607719
10
25.715912252784662
20
4.2604188321766054
30
0
10
25.715862726040783
20
4.2604256952401078
30
0
10
25.703597527236326
20
4.2621253191537294
30
0
10
25.654625498929168
20
4.268883782628726
30
0
10
25.617940354387152
20
4.2739393586613064
30
0
10
25.521127487409188
20
4.2871908345432441
30
0
10
25.461005109814788
20
4.2953855666887524
30
0
10
25.318873285737133
20
4.3145772157128697
30
0
10
25.236876250745212
20
4.325571908304024
30
0
10
25.053095139435083
20
4.3499238336692052
30
0
10
24.951317620067343
20
4.3632795986220199
30
0
10
24.730609958858274
20
4.3918340858617029
30
0
10
24.611699239740194
20
4.4070298362616818
30
0
10
24.359790824964414
20
4.4387011676138419
30
0
10
24.226800351042609
20
4.4551755266125808
30
0
10
23.950119589382751
20
4.4888326236350888
30
0
10
23.806445317364936
20
4.5060133149520238
30
0
10
23.512082722114059
20
4.5405256388138211
30
0
10
23.361405616759704
20
4.5578560655470852
30
0
10
23.056811501915114
20
4.5921636761537901
30
0
10
22.902895820339054
20
4.6091407776674664
30
0
10
22.595728855791911
20
4.6422937820714942
30
0
10
22.442486205511919
20
4.6584689485214428
30
0
10
22.140506792841038
20
4.6896503826695328
30
0
10
21.991765237018544
20
4.7046571925111449
30
0
10
21.702537885997209
20
4.7332115768816969
30
0
10
21.562064531132421
20
4.7467580602096797
30
0
10
21.292969265582727
20
4.7721753764334132
30
0
10
21.164359109992546
20
4.7840453195318453
30
0
10
20.941691019185718
20
4.8042077626589377
30
0
10
20.845394200417104
20
4.8127695097646175
30
0
10
20.665306951492823
20
4.8285497314218153
30
0
10
20.581518436304343
20
4.8357683535555154
30
0
10
20.504739380092055
20
4.8423010181193646
30
0
0
SPLINE
5
228
100
AcDbEntity
8
0
100
AcDbSpline
70
0
71
3
72
20
73
16
74
0
42
0.000000001
43
0.0000000001
44
0.0000000001
40
0
40
0
40
0
40
0
40
0.017144291590065745
40
0.017144291590065745
40
0.029813208401296309
40
0.029813208401296309
40
0.042130099552580652
40
0.042130099552580652
40
0.054338858601519331
40
0.054338858601519331
40
0.066520325900259941
40
0.066520325900259941
40
0.078751145259646757
40
0.078751145259646757
40
0.085721457950328733
40
0.085721457950328733
40
0.085721457950328733
40
0.085721457950328733
10
19.823756638828868
20
4.9190326126256609
30
0
10
19.843315866867275
20
4.915469809750614
30
0
10
19.869803126936795
20
4.9117941344643921
30
0
10
19.934777353140149
20
4.9033934432888273
30
0
10
19.967546761989734
20
4.8993645099468717
30
0
10
20.039213411491726
20
4.8908651876935414
30
0
10
20.077898159858826
20
4.8864123489431686
30
0
10
20.157738352950958
20
4.8774504711536606
30
0
10
20.198856278139033
20
4.8729435874911591
30
0
10
20.279628498077766
20
4.8642975501401242
30
0
10
20.319263001855894
20
4.8601600961178999
30
0
10
20.393345668770351
20
4.8526539036828309
30
0
10
20.427745644039486
20
4.8492911008675472
30
0
10
20.474917384865638
20
4.8449078295900474
30
0
10
20.490633027212013
20
4.8435012421925885
30
0
10
20.504739380092012
20
4.842301018119378
30
0
0
LINE
5
229
100
AcDbEntity
8
0
100
AcDbLine
10
4.1754819348352381
20
8.793153867070524
30
0
11
4.3726876106861292
21
10.605883578106665
31
0
0
LINE
5
230
100
AcDbEntity
8
0
100
AcDbLine
10
26.329895772281702
20
7.1701125666912002
30
0
11
26.442472464634257
21
8.2049261648146317
31
0
0
LINE
5
231
100
AcDbEntity
8
0
100
AcDbLine
10
75.680890657310286
20
2.1911985330866637
30
0
11
75.71368839531786
21
2.4926778585908975
31
0
0
LINE
5
232
100
AcDbEntity
8
0
100
AcDbLine
10
55.400920703549055
20
4.4009113112420986
30
0
11
55.433345556554698
21
4.6989630491835808
31
0
0
ARC
5
233
100
AcDbEntity
8
0
100
AcDbCircle
10
55.781292615062895
20
4.661110116992039
30
0
40
0.34999999999999931
210
0
220
-0
230
1
100
AcDbArc
50
83.791246696395035
51
173.79124669639504
0
ARC
5
234
100
AcDbEntity
8
0
100
AcDbCircle
10
75.365741336809663
20
2.5305307907824375
30
0
40
0.3500000000000022
210
-0
220
0
230
1
100
AcDbArc
50
-6.2087533036047082
51
83.791246696395049
0
LINE
5
235
100
AcDbEntity
8
0
100
AcDbLine
10
40.687976054672646
20
6.0038039779354708
30
0
11
40.758008586153679
21
6.6475483833993341
31
0
0
LINE
5
236
100
AcDbEntity
8
0
100
AcDbLine
10
27.128886555791667
20
7.1174480307065142
30
0
11
27.237780026978253
21
8.118405177127789
31
0
0
LWPOLYLINE
5
237
100
AcDbEntity
8
0
100
AcDbPolyline
90
93
70
1
43
0.0
10
17.191218504821457
20
16.554435142655663
10
17.266924369204538
20
17.250329259672043
10
17.364260480554215
20
18.145050267264537
10
17.391298289262458
20
18.39358388048467
10
17.78895207041468
20
18.35032338655148
10
17.761914261706437
20
18.101789773331344
10
17.66457815035676
20
17.20706876573885
10
17.983615511927614
20
17.172360900508185
10
18.153314151207013
20
17.153899496887814
10
18.161645376797033
20
17.152993148322366
10
18.085939512413951
20
16.457099031305983
10
18.077608286823931
20
16.45800537987143
10
17.907909647544535
20
16.476466783491801
10
17.588872285973679
20
16.51117464872247
10
17.578057162490378
20
16.411761203434416
10
17.539276439382711
20
16.055285819602748
10
17.531628992228303
20
15.98498989829845
10
17.489296289211239
20
15.595864442469702
10
17.481648842056828
20
15.525568521165402
10
17.210342964058263
20
13.031704063640559
10
17.183305155350023
20
12.783170450420423
10
17.134637099675185
20
12.335809946624178
42
-0.41421356237309515
10
16.583494255818426
20
11.89281833760039
10
16.43437408788634
20
11.909041022825338
10
15.937306861446068
20
11.963116640241825
10
15.291119467073715
20
12.033414942883258
10
15.092292576497604
20
12.055045189849851
10
11.712235436703747
20
12.422759388281966
10
11.513408546127639
20
12.444389635248561
10
10.867221151755281
20
12.514687937889995
10
10.370153925315009
20
12.568763555306482
10
10.22103375738293
20
12.584986240531428
42
-0.41421356237309503
10
9.7780421483591411
20
13.136129084388187
10
9.8267102040339811
20
13.583489588184435
10
9.8537480127422246
20
13.832023201404571
10
10.125053890740787
20
16.325887658929414
10
10.132701337895199
20
16.396183580233718
10
10.17503404091226
20
16.785309036062461
10
10.18268148806667
20
16.855604957366758
10
10.221462211174337
20
17.21208034119843
10
10.232277334657638
20
17.31149378648648
10
9.9132399730867746
20
17.346201651717152
10
9.7435413338073804
20
17.36466305533752
10
9.7352101082173625
20
17.36556940390297
10
9.8109159726004442
20
18.061463520919354
10
9.8192471981904621
20
18.060557172353903
10
9.9889458374698599
20
18.042095768733532
10
10.307983199040718
20
18.007387903502863
10
10.405319310390393
20
18.902108911095354
10
10.432357119098636
20
19.15064252431549
10
10.830010900250855
20
19.107382030382304
10
10.802973091542613
20
18.858848417162164
10
10.705636980192937
20
17.964127409569674
10
10.629931115809852
20
17.26823329255329
10
10.619115992326558
20
17.168819847265237
10
10.580335269218889
20
16.812344463433568
10
10.572687822064479
20
16.742048542129272
10
10.570447936651718
20
16.721459343468993
42
-0.4142135623730967
10
10.924841223870745
20
16.280545068383585
10
10.914026100387449
20
16.181131623095531
10
10.881580729937554
20
15.882891287231365
10
10.483926948785333
20
15.926151781164553
42
-0.26794919243111953
10
10.645289152635042
20
15.560143257809194
10
10.634085783686608
20
15.457161030401707
10
10.622882414738175
20
15.35417880299422
42
-0.26794919243111393
10
10.38659083743566
20
15.031430773572056
10
10.251401793894443
20
13.788762707471381
10
10.2243639851862
20
13.540229094251243
10
10.175695929511361
20
13.092868590454998
42
0.41421356237309509
10
10.264294251316119
20
12.982640021683647
10
10.413414419248198
20
12.966417336458701
10
10.910481645688472
20
12.912341719042214
10
11.556669040060829
20
12.842043416400779
10
11.755495930636936
20
12.820413169434184
10
15.135553070430793
20
12.45269897100207
10
15.334379961006906
20
12.431068724035477
10
15.980567355379257
20
12.360770421394044
10
16.47763458181953
20
12.306694803977557
10
16.626754749751615
20
12.290472118752609
42
0.41421356237309509
10
16.736983318522967
20
12.379070440557367
10
16.785651374197805
20
12.826430944353612
10
16.812689182906048
20
13.07496455757375
10
16.947878226447266
20
14.317632623674426
42
-0.26794919243111393
10
16.78651602259756
20
14.683641147029778
10
16.808922760494418
20
14.889605601844751
42
-0.2679491924311182
10
17.045214337796942
20
15.212353631266923
10
16.647560556644724
20
15.255614125200115
10
16.680005927094616
20
15.553854461064278
10
16.690821050577913
20
15.653267906352333
42
-0.41421356237309825
10
17.131735325663321
20
16.007661193571362
10
17.133975211076084
20
16.028250392231637
10
17.141622658230492
20
16.098546313535934
10
17.180403381338159
20
16.455021697367606
0
LWPOLYLINE
5
238
100
AcDbEntity
8
0
100
AcDbPolyline
90
93
70
1
43
0.0
10
38.06804201531294
20
14.283259211163193
10
38.143747879696029
20
14.979153328179574
10
38.241083991045706
20
15.873874335772067
10
38.268121799753949
20
16.122407948992201
10
38.665775580906171
20
16.079147455059012
10
38.638737772197928
20
15.830613841838876
10
38.541401660848251
20
14.935892834246383
10
38.860439022419101
20
14.901184969015715
10
39.030137661698497
20
14.882723565395345
10
39.038468887288516
20
14.881817216829898
10
38.962763022905435
20
14.185923099813515
10
38.954431797315422
20
14.186829448378964
10
38.784733158036026
20
14.205290851999333
10
38.465695796465162
20
14.239998717230002
10
38.454880672981865
20
14.140585271941948
10
38.416099949874202
20
13.784109888110279
10
38.40845250271979
20
13.713813966805981
10
38.36611979970273
20
13.324688510977234
10
38.358472352548318
20
13.254392589672934
10
38.087166474549754
20
10.760528132148091
10
38.060128665841503
20
10.511994518927954
10
38.011460610166672
20
10.064634015131709
42
-0.41421356237309509
10
37.460317766309913
20
9.621642406107922
10
37.311197598377824
20
9.6378650913328698
10
36.814130371937559
20
9.6919407087493568
10
36.167942977565204
20
9.762239011390788
10
35.969116086989089
20
9.7838692583573845
10
32.589058947195234
20
10.151583456789497
10
32.390232056619126
20
10.173213703756092
10
31.744044662246772
20
10.243512006397527
10
31.2469774358065
20
10.297587623814014
10
31.097857267874414
20
10.31381030903896
42
-0.41421356237309492
10
30.654865658850628
20
10.864953152895719
10
30.70353371452547
20
11.312313656691966
10
30.730571523233714
20
11.560847269912102
10
31.001877401232278
20
14.054711727436946
10
31.009524848386683
20
14.125007648741247
10
31.051857551403742
20
14.514133104569993
10
31.059504998558154
20
14.584429025874289
10
31.098285721665825
20
14.94090440970596
10
31.109100845149122
20
15.040317854994015
10
30.790063483578258
20
15.075025720224682
10
30.620364844298862
20
15.093487123845051
10
30.612033618708846
20
15.094393472410502
10
30.687739483091931
20
15.790287589426883
10
30.696070708681948
20
15.789381240861433
10
30.865769347961347
20
15.770919837241063
10
31.184806709532211
20
15.736211972010395
10
31.28214282088188
20
16.630932979602886
10
31.309180629590124
20
16.879466592823022
10
31.706834410742346
20
16.836206098889836
10
31.679796602034102
20
16.5876724856697
10
31.582460490684422
20
15.692951478077205
10
31.506754626301337
20
14.997057361060824
10
31.495939502818043
20
14.897643915772768
10
31.457158779710372
20
14.5411685319411
10
31.449511332555961
20
14.470872610636803
10
31.447271447143201
20
14.450283411976518
42
-0.41421356237309553
10
31.80166473436223
20
14.009369136891117
10
31.790849610878933
20
13.909955691603063
10
31.758404240429044
20
13.611715355738896
10
31.360750459276822
20
13.654975849672082
42
-0.26794919243111853
10
31.522112663126528
20
13.288967326316726
10
31.510909294178091
20
13.185985098909239
10
31.499705925229662
20
13.083002871501751
42
-0.26794919243111381
10
31.263414347927146
20
12.760254842079588
10
31.128225304385928
20
11.517586775978913
10
31.101187495677681
20
11.269053162758775
10
31.052519440002847
20
10.82169265896253
42
0.41421356237309509
10
31.141117761807603
20
10.711464090191178
10
31.290237929739689
20
10.695241404966232
10
31.787305156179961
20
10.641165787549745
10
32.433492550552316
20
10.570867484908311
10
32.632319441128423
20
10.549237237941716
10
36.012376580922279
20
10.181523039509601
10
36.211203471498393
20
10.159892792543008
10
36.857390865870741
20
10.089594489901575
10
37.354458092311013
20
10.035518872485088
10
37.503578260243103
20
10.01929618726014
42
0.41421356237309509
10
37.61380682901445
20
10.107894509064899
10
37.662474884689289
20
10.555255012861144
10
37.689512693397532
20
10.803788626081282
10
37.824701736938749
20
12.046456692181952
42
-0.26794919243111498
10
37.663339533089044
20
12.41246521553731
10
37.685746270985909
20
12.618429670352283
42
-0.26794919243111742
10
37.922037848288433
20
12.941177699774455
10
37.524384067136211
20
12.984438193707646
10
37.556829437586103
20
13.282678529571809
10
37.5676445610694
20
13.382091974859865
42
-0.41421356237309359
10
38.008558836154812
20
13.736485262078892
10
38.010798721567568
20
13.757074460739169
10
38.018446168721979
20
13.827370382043467
10
38.05722689182965
20
14.183845765875136
0
LINE
5
239
100
AcDbEntity
8
0
100
AcDbLine
10
-22.712893948895946
20
111.86229806520005
30
0
11
-19.396332687071325
21
112.88274963022619
31
0
0
LINE
5
240
100
AcDbEntity
8
0
100
AcDbLine
10
-23.955409695400846
20
111.47999632614128
30
0
11
-23.4092196408929
21
109.70482850979465
31
0
0
LINE
5
241
100
AcDbEntity
8
0
100
AcDbLine
10
-23.955409695400846
20
111.47999632614128
30
0
11
-22.712893948895946
21
111.86229806520005
31
0
0
LINE
5
242
100
AcDbEntity
8
0
100
AcDbLine
10
-22.825353663266444
20
107.80721048473563
30
0
11
-22.245160548029538
21
105.92152959960437
31
0
0
LINE
5
243
100
AcDbEntity
8
0
100
AcDbLine
10
-15.401166671386335
20
114.11199676043057
30
0
11
-16.643682417891238
21
113.7296950213718
31
0
0
LINE
5
244
100
AcDbEntity
8
0
100
AcDbLine
10
-19.386774873636671
20
112.88569041283432
30
0
11
-16.643682417891238
21
113.7296950213718
31
0
0
LINE
5
245
100
AcDbEntity
8
0
100
AcDbLine
10
-19.386774873636671
20
112.88569041283432
30
0
11
-19.396332687071325
21
112.88274963022619
31
0
0
LINE
5
246
100
AcDbEntity
8
0
100
AcDbLine
10
-23.308437521609061
20
109.3772773705176
30
0
11
-23.4092196408929
21
109.70482850979465
31
0
0
LINE
5
247
100
AcDbEntity
8
0
100
AcDbLine
10
-23.308437521609061
20
109.3772773705176
30
0
11
-23.220214043364727
21
109.090542967478
31
0
0
LINE
5
248
100
AcDbEntity
8
0
100
AcDbLine
10
-23.220214043364727
20
109.090542967478
30
0
11
-23.161398391201836
21
108.89938669878495
31
0
0
LINE
5
249
100
AcDbEntity
8
0
100
AcDbLine
10
-23.161398391201836
20
108.89938669878495
30
0
11
-23.073174912957501
21
108.61265229574535
31
0
0
LINE
5
250
100
AcDbEntity
8
0
100
AcDbLine
10
-23.014359260794613
20
108.42149602705229
30
0
11
-23.073174912957501
21
108.61265229574535
31
0
0
LINE
5
251
100
AcDbEntity
8
0
100
AcDbLine
10
-23.014359260794613
20
108.42149602705229
30
0
11
-22.984951434713167
21
108.32591789270575
31
0
0
LINE
5
252
100
AcDbEntity
8
0
100
AcDbLine
10
-22.984951434713167
20
108.32591789270575
30
0
11
-22.926135782550283
21
108.1347616240127
31
0
0
LINE
5
253
100
AcDbEntity
8
0
100
AcDbLine
10
-22.825353663266444
20
107.80721048473563
30
0
11
-22.926135782550283
21
108.1347616240127
31
0
0
LINE
5
254
100
AcDbEntity
8
0
100
AcDbLine
10
-22.114479782702404
20
105.49680511604845
30
0
11
-22.245160548029538
21
105.92152959960437
31
0
0
LINE
5
255
100
AcDbEntity
8
0
100
AcDbLine
10
-22.114479782702404
20
105.49680511604845
30
0
11
-22.011552391417347
21
105.16228164583559
31
0
0
LINE
5
256
100
AcDbEntity
8
0
100
AcDbLine
10
-21.911565782740436
20
104.83731598905737
30
0
11
-22.011552391417347
21
105.16228164583559
31
0
0
LINE
5
257
100
AcDbEntity
8
0
100
AcDbLine
10
-21.911565782740436
20
104.83731598905737
30
0
11
-21.808638391455382
21
104.50279251884453
31
0
0
LINE
5
258
100
AcDbEntity
8
0
100
AcDbLine
10
-14.854976616878389
20
112.33682894408395
30
0
11
-15.401166671386335
21
114.11199676043057
31
0
0
LINE
5
259
100
AcDbEntity
8
0
100
AcDbLine
10
-13.357322758725925
20
107.4693164233467
30
0
11
-13.254395367440869
21
107.13479295313384
31
0
0
LINE
5
260
100
AcDbEntity
8
0
100
AcDbLine
10
-13.357322758725925
20
107.4693164233467
30
0
11
-13.457309367402836
21
107.7942820801249
31
0
0
LINE
5
261
100
AcDbEntity
8
0
100
AcDbLine
10
-13.560236758687891
20
108.12880555033773
30
0
11
-13.457309367402836
21
107.7942820801249
31
0
0
LINE
5
262
100
AcDbEntity
8
0
100
AcDbLine
10
-13.560236758687891
20
108.12880555033773
30
0
11
-13.690917524014971
21
108.55353003389351
31
0
0
LINE
5
263
100
AcDbEntity
8
0
100
AcDbLine
10
-13.690917524014971
20
108.55353003389351
30
0
11
-14.271110639251933
21
110.43921091902493
31
0
0
LINE
5
264
100
AcDbEntity
8
0
100
AcDbLine
10
-14.271110639251933
20
110.43921091902493
30
0
11
-14.371892758535767
21
110.76676205830199
31
0
0
LINE
5
265
100
AcDbEntity
8
0
100
AcDbLine
10
-14.430708410698658
20
110.95791832699506
30
0
11
-14.371892758535767
21
110.76676205830199
31
0
0
LINE
5
266
100
AcDbEntity
8
0
100
AcDbLine
10
-14.460116236780102
20
111.0534964613416
30
0
11
-14.430708410698658
21
110.95791832699506
31
0
0
LINE
5
267
100
AcDbEntity
8
0
100
AcDbLine
10
-14.460116236780102
20
111.0534964613416
30
0
11
-14.518931888942992
21
111.24465273003466
31
0
0
LINE
5
268
100
AcDbEntity
8
0
100
AcDbLine
10
-14.607155367187328
20
111.53138713307425
30
0
11
-14.518931888942992
21
111.24465273003466
31
0
0
LINE
5
269
100
AcDbEntity
8
0
100
AcDbLine
10
-14.665971019350216
20
111.7225434017673
30
0
11
-14.607155367187328
21
111.53138713307425
31
0
0
LINE
5
270
100
AcDbEntity
8
0
100
AcDbLine
10
-14.754194497594552
20
112.0092778048069
30
0
11
-14.665971019350216
21
111.7225434017673
31
0
0
LINE
5
271
100
AcDbEntity
8
0
100
AcDbLine
10
-14.754194497594552
20
112.0092778048069
30
0
11
-14.854976616878389
21
112.33682894408395
31
0
0
LINE
5
272
100
AcDbEntity
8
0
100
AcDbLine
10
-13.999904815343809
20
106.90541190969856
30
0
11
-14.205759597913923
21
107.57445885012429
31
0
0
LINE
5
273
100
AcDbEntity
8
0
100
AcDbLine
10
-21.063128943453037
20
104.73217356231038
30
0
11
-21.268983726023151
21
105.40122050273609
31
0
0
LINE
5
274
100
AcDbEntity
8
0
100
AcDbLine
10
-21.624831379700844
20
104.9255394673017
30
0
11
-21.52190398841579
21
104.59101599708886
31
0
0
LINE
5
275
100
AcDbEntity
8
0
100
AcDbLine
10
-21.624831379700844
20
104.9255394673017
30
0
11
-21.724817988377755
21
105.25050512407992
31
0
0
LINE
5
276
100
AcDbEntity
8
0
100
AcDbLine
10
-21.727758770985904
20
105.26006293751458
30
0
11
-21.724817988377755
21
105.25050512407992
31
0
0
LINE
5
277
100
AcDbEntity
8
0
100
AcDbLine
10
-21.808638391455382
20
104.50279251884453
30
0
11
-21.52190398841579
21
104.59101599708886
31
0
0
LINE
5
278
100
AcDbEntity
8
0
100
AcDbLine
10
-21.727758770985904
20
105.26006293751458
30
0
11
-21.268983726023151
21
105.40122050273609
31
0
0
LINE
5
279
100
AcDbEntity
8
0
100
AcDbLine
10
-20.566122644950479
20
104.88509425790329
30
0
11
-20.948435182259928
21
104.76746295360113
31
0
0
LINE
5
280
100
AcDbEntity
8
0
100
AcDbLine
10
-15.148311199057149
20
106.76131896106314
30
0
11
-15.324758155545817
21
107.33478776714233
31
0
0
ARC
5
281
100
AcDbEntity
8
0
100
AcDbCircle
10
-15.515914424238881
20
107.27597211497944
30
0
40
0.20000000000000134
210
-0
220
0
230
1
100
AcDbArc
50
17.102274092808315
51
107.10227409280782
0
LINE
5
282
100
AcDbEntity
8
0
100
AcDbLine
10
-15.574730076401771
20
107.4671283836725
30
0
11
-16.578300487040345
21
107.15834620981732
31
0
0
ARC
5
283
100
AcDbEntity
8
0
100
AcDbCircle
10
-16.519484834877453
20
106.96718994112427
30
0
40
0.19999999999999904
210
0
220
0
230
1
100
AcDbArc
50
107.10227409280952
51
287.10227409280736
0
LINE
5
284
100
AcDbEntity
8
0
100
AcDbLine
10
-18.778811532670353
20
105.43502060562632
30
0
11
-16.284222226225896
21
106.20256486635202
31
0
0
ARC
5
285
100
AcDbEntity
8
0
100
AcDbCircle
10
-19.01407414132191
20
106.19964568039856
30
0
40
0.1999999999999984
210
-0
220
0
230
1
100
AcDbArc
50
-72.897725907191472
51
107.10227409280735
0
LINE
5
286
100
AcDbEntity
8
0
100
AcDbLine
10
-20.076460204123375
20
106.08201977523646
30
0
11
-19.072889793484798
21
106.39080194909162
31
0
0
ARC
5
287
100
AcDbEntity
8
0
100
AcDbCircle
10
-20.017644551960487
20
105.8908635065434
30
0
40
0.1999999999999984
210
0
220
0
230
1
100
AcDbArc
50
107.10227409280735
51
197.1022740928089
0
LINE
5
288
100
AcDbEntity
8
0
100
AcDbLine
10
-20.032353864164879
20
105.25857904830133
30
0
11
-20.208800820653543
21
105.83204785438051
31
0
0
ARC
5
289
100
AcDbEntity
8
0
100
AcDbCircle
10
-20.223510132857939
20
105.19976339613845
30
0
40
0.1999999999999984
210
-0
220
0
230
1
100
AcDbArc
50
-72.897725907191685
51
17.102274092804723
0
LINE
5
290
100
AcDbEntity
8
0
100
AcDbLine
10
-20.566122644950479
20
104.88509425790329
30
0
11
-20.164694480695047
21
105.00860712744539
31
0
0
LINE
5
291
100
AcDbEntity
8
0
100
AcDbLine
10
-14.898339278201201
20
106.62897834453298
30
0
11
-14.496911113945771
21
106.75249121407505
31
0
0
ARC
5
292
100
AcDbEntity
8
0
100
AcDbCircle
10
-14.957154930364089
20
106.82013461322605
30
0
40
0.20000000000000229
210
0
220
0
230
1
100
AcDbArc
50
197.10227409281248
51
287.10227409280736
0
LINE
5
293
100
AcDbEntity
8
0
100
AcDbLine
10
-14.496911113945771
20
106.75249121407505
30
0
11
-14.114598576559585
21
106.87012251840086
31
0
0
LINE
5
294
100
AcDbEntity
8
0
100
AcDbLine
10
-13.746984553050579
20
107.7156164153152
30
0
11
-14.205759597913923
21
107.57445885012429
31
0
0
LINE
5
295
100
AcDbEntity
8
0
100
AcDbLine
10
-13.746984553050579
20
107.7156164153152
30
0
11
-13.744043770442429
21
107.70605860188056
31
0
0
LINE
5
296
100
AcDbEntity
8
0
100
AcDbLine
10
-13.644057161765517
20
107.38109294510235
30
0
11
-13.744043770442429
21
107.70605860188056
31
0
0
LINE
5
297
100
AcDbEntity
8
0
100
AcDbLine
10
-13.644057161765517
20
107.38109294510235
30
0
11
-13.541129770480463
21
107.04656947488949
31
0
0
LINE
5
298
100
AcDbEntity
8
0
100
AcDbLine
10
-13.254395367440869
20
107.13479295313384
30
0
11
-13.541129770480463
21
107.04656947488949
31
0
0
LINE
5
299
100
AcDbEntity
8
0
100
AcDbLine
10
-13.999904815343809
20
106.90541190969856
30
0
11
-14.114598576559585
21
106.87012251840086
31
0
0
LINE
5
300
100
AcDbEntity
8
0
100
AcDbLine
10
-20.948435182259928
20
104.76746295360113
30
0
11
-21.063128943453037
21
104.73217356231038
31
0
0
LINE
5
301
100
AcDbEntity
8
0
100
AcDbLine
10
-16.284222226225896
20
106.20256486635202
30
0
11
-16.045276890359482
21
106.27608443155566
31
0
0
LINE
5
302
100
AcDbEntity
8
0
100
AcDbLine
10
-15.796957613188491
20
106.35248820492541
30
0
11
-16.045276890359482
21
106.27608443155566
31
0
0
LINE
5
303
100
AcDbEntity
8
0
100
AcDbLine
10
-15.796957613188491
20
106.35248820492541
30
0
11
-15.653590411668505
21
106.39659994404764
31
0
0
LINE
5
304
100
AcDbEntity
8
0
100
AcDbLine
10
-19.266076145707615
20
105.28509726705298
30
0
11
-19.409443347227743
21
105.24098552793072
31
0
0
LINE
5
305
100
AcDbEntity
8
0
100
AcDbLine
10
-19.266076145707615
20
105.28509726705298
30
0
11
-19.017756868536775
21
105.3615010404227
31
0
0
LINE
5
306
100
AcDbEntity
8
0
100
AcDbLine
10
-18.778811532670353
20
105.43502060562632
30
0
11
-19.017756868536775
21
105.3615010404227
31
0
0
LINE
5
307
100
AcDbEntity
8
0
100
AcDbLine
10
-16.460669182714565
20
106.77603367243121
30
0
11
-16.22172384684815
21
106.84955323763484
31
0
0
LINE
5
308
100
AcDbEntity
8
0
100
AcDbLine
10
-18.955258489159021
20
106.00848941170551
30
0
11
-19.194203825025436
21
105.93496984650187
31
0
0
LINE
5
309
100
AcDbEntity
8
0
100
AcDbLine
10
-19.194203825025436
20
105.93496984650187
30
0
11
-19.442523102196329
21
105.85856607313217
31
0
0
LINE
5
310
100
AcDbEntity
8
0
100
AcDbLine
10
-19.442523102196329
20
105.85856607313217
30
0
11
-19.585890303716411
21
105.81445433400992
31
0
0
ELLIPSE
5
311
100
AcDbEntity
8
0
100
AcDbEllipse
10
-19.556482477634635
20
105.71887619966347
30
0
11
-0.029407826081444755
21
0.095578134346530841
31
0.0
40
0.86602540378432902
41
3.9506176108243605e-12
42
1.5707963267946692
0
LINE
5
312
100
AcDbEntity
8
0
100
AcDbLine
10
-19.639255570025043
20
105.69340827520688
30
0
11
-19.521624265699803
21
105.31109573782058
31
0
0
ELLIPSE
5
313
100
AcDbEntity
8
0
100
AcDbEllipse
10
-19.438851173308858
20
105.33656366227734
30
0
11
0.029407826081444755
21
-0.095578134346530841
31
0.0
40
0.86602540378432902
41
4.7123889803846897
42
6.2831853071756072
0
LINE
5
314
100
AcDbEntity
8
0
100
AcDbLine
10
-16.22172384684815
20
106.84955323763484
30
0
11
-15.973404569677253
21
106.92595701100456
31
0
0
ELLIPSE
5
315
100
AcDbEntity
8
0
100
AcDbEllipse
10
-15.682998237750281
20
106.49217807839406
30
0
11
0.029407826081444755
21
-0.095578134346530841
31
0.0
40
0.86602540378432902
41
3.950617610826157e-12
42
1.5707963267948966
0
LINE
5
316
100
AcDbEntity
8
0
100
AcDbLine
10
-15.71785644968511
20
106.89995854023694
30
0
11
-15.600225145359873
21
106.51764600285065
31
0
0
ELLIPSE
5
317
100
AcDbEntity
8
0
100
AcDbEllipse
10
-15.800629542076061
20
106.87449061578019
30
0
11
0.029407826081444755
21
-0.095578134346530841
31
0.0
40
0.86602540378432902
41
1.5707963267951239
42
3.1415926535897647
0
LINE
5
318
100
AcDbEntity
8
0
100
AcDbLine
10
-15.973404569677253
20
106.92595701100456
30
0
11
-15.830037368157502
21
106.97006875012673
31
0
0
ENDSEC
0
SECTION
2
OBJECTS
0
DICTIONARY
5
C
100
AcDbDictionary
3
ACAD_GROUP
350
D
3
ACAD_MLINESTYLE
350
17
0
DICTIONARY
5
D
100
AcDbDictionary
0
DICTIONARY
5
1A
330
C
100
AcDbDictionary
0
DICTIONARY
5
17
100
AcDbDictionary
0
ENDSEC
0
EOF
